<svg width="26" height="41" viewBox="0 0 26 41" fill="none" xmlns="http://www.w3.org/2000/svg">
<g id="fontisto:blood-drop" clip-path="url(#clip0_27_336)">
<path id="Vector" d="M25.3881 23.3409C25.3374 23.2009 25.2772 23.0645 25.2078 22.9326L25.2165 22.9514C24.9634 22.3688 22.9285 18.4943 22.5888 17.9665L13.1404 -0.00180054L3.45102 18.4072C3.12169 18.9368 1.31556 22.3705 1.06596 22.9514L0.967155 23.1666C0.322744 24.7146 -0.00591458 26.3725 -4.48126e-05 28.0456C-4.48126e-05 31.4809 1.38457 34.7754 3.8492 37.2045C6.31383 39.6336 9.65658 40.9982 13.1421 40.9982C16.6276 40.9982 19.9704 39.6336 22.435 37.2045C24.8996 34.7754 26.2842 31.4809 26.2842 28.0456V28.0354L26.286 27.8628C26.286 26.2314 25.9566 24.6751 25.3586 23.2572L25.3881 23.3375V23.3409ZM13.1473 37.614C11.4661 37.6143 9.81378 37.1832 8.35302 36.363C6.89226 35.5427 5.67342 34.3617 4.81649 32.9362C3.95956 31.5106 3.49409 29.8897 3.46589 28.233C3.43769 26.5762 3.84775 24.9409 4.65569 23.4878L4.62969 23.5373C4.50272 24.2025 4.43889 24.878 4.43902 25.5549V25.5566C4.44086 28.5898 5.66426 31.4983 7.84049 33.6432C10.0167 35.788 12.9678 36.9938 16.0454 36.9956C16.2413 36.9956 16.451 36.9956 16.6452 36.9853C15.5373 37.4049 14.3601 37.6181 13.1733 37.614H13.1334H13.1473Z" fill="#F24E1E"/>
</g>
<defs>
<clipPath id="clip0_27_336">
<rect width="26" height="41" fill="white"/>
</clipPath>
</defs>
</svg>
