<svg width="57" height="56" viewBox="0 0 57 56" fill="none" xmlns="http://www.w3.org/2000/svg">
<g id="icon-park-outline:weight">
<g id="Group">
<path id="Vector" d="M48.6875 4.66666H8.3125C7.36767 4.66666 6.46153 5.03541 5.79343 5.69179C5.12533 6.34817 4.75 7.23841 4.75 8.16666V47.8333C4.75 48.7616 5.12533 49.6518 5.79343 50.3082C6.46153 50.9646 7.36767 51.3333 8.3125 51.3333H48.6875C49.6323 51.3333 50.5385 50.9646 51.2066 50.3082C51.8747 49.6518 52.25 48.7616 52.25 47.8333V8.16666C52.25 7.23841 51.8747 6.34817 51.2066 5.69179C50.5385 5.03541 49.6323 4.66666 48.6875 4.66666Z" stroke="#F8F8F8" stroke-width="4" stroke-linejoin="round"/>
<path id="Vector_2" d="M14.25 22.2297C18.1984 17.563 22.9484 15.2297 28.5 15.2297C34.0516 15.2297 38.8016 17.563 42.75 22.2297" stroke="#F8F8F8" stroke-width="4" stroke-linecap="round"/>
<path id="Vector_3" d="M28.5 36.1667C29.4448 36.1667 30.351 35.7979 31.0191 35.1415C31.6872 34.4852 32.0625 33.5949 32.0625 32.6667C32.0625 31.7384 31.6872 30.8482 31.0191 30.1918C30.351 29.5354 29.4448 29.1667 28.5 29.1667C27.5552 29.1667 26.649 29.5354 25.9809 30.1918C25.3128 30.8482 24.9375 31.7384 24.9375 32.6667C24.9375 33.5949 25.3128 34.4852 25.9809 35.1415C26.649 35.7979 27.5552 36.1667 28.5 36.1667Z" fill="#F8F8F8"/>
<path id="Vector_4" d="M22.5625 24.5L28.5095 32.6667" stroke="#F8F8F8" stroke-width="4" stroke-linecap="round"/>
</g>
</g>
</svg>
