<svg width="209" height="166" viewBox="0 0 209 166" fill="none" xmlns="http://www.w3.org/2000/svg">
<rect width="209" height="166" fill="#1E1E1E"/>
<g id="Desktop - Dashboard" clip-path="url(#clip0_0_1)">
<rect width="1440" height="1024" transform="translate(-640 -259)" fill="white"/>
<g id="Rectangle 12" filter="url(#filter0_i_0_1)">
<path d="M-554 -259H728C755.614 -259 778 -236.614 778 -209V715C778 742.614 755.614 765 728 765H-554V-259Z" fill="#E7E8FF"/>
</g>
<g id="Rectangle 24" filter="url(#filter1_d_0_1)">
<rect x="-530" y="-8" width="790" height="188" rx="10" fill="white"/>
</g>
<g id="undraw_medicine_b-1-ol 1" clip-path="url(#clip1_0_1)">
<path id="Vector" opacity="0.1" d="M69.4838 165.907C79.662 165.907 87.913 164.421 87.913 162.588C87.913 160.755 79.662 159.269 69.4838 159.269C59.3057 159.269 51.0547 160.755 51.0547 162.588C51.0547 164.421 59.3057 165.907 69.4838 165.907Z" fill="#6C63FF"/>
<path id="Vector_2" opacity="0.1" d="M169.662 166C182.363 166 192.659 164.514 192.659 162.681C192.659 160.848 182.363 159.362 169.662 159.362C156.961 159.362 146.665 160.848 146.665 162.681C146.665 164.514 156.961 166 169.662 166Z" fill="#6C63FF"/>
<path id="Vector_3" opacity="0.1" d="M2.61764 71.7239H21.8128V101.06H4.0229C3.97562 101.361 3.93023 101.665 3.88105 101.968H21.8128V125.627C21.7806 125.617 21.7523 125.604 21.722 125.591C21.2151 125.366 20.712 125.129 20.2089 124.874L19.8874 124.711C19.3831 124.444 18.8787 124.161 18.3743 123.863C18.1985 123.759 18.0226 123.651 17.8486 123.54C15.0486 121.782 12.505 119.553 10.3059 116.932C10.2416 116.862 10.1811 116.788 10.1168 116.72C9.81039 116.347 9.50966 115.969 9.2184 115.583L8.89687 115.159C8.55265 114.686 8.21977 114.201 7.89635 113.709C7.84907 113.636 7.80368 113.564 7.7545 113.496C6.43917 111.451 5.34703 109.237 4.50141 106.901C4.47493 106.831 4.45224 106.755 4.42765 106.689C4.1679 105.94 3.93779 105.183 3.73731 104.42C3.65031 104.099 3.56709 103.783 3.49522 103.45C3.46874 103.353 3.44604 103.257 3.42524 103.162C2.35096 98.4603 2.22424 93.5762 2.22424 88.726C2.22424 88.1598 2.22424 87.5914 2.22424 87.0294C2.22424 85.0677 2.24505 83.0933 2.27531 81.121C2.27531 80.6099 2.29422 80.1009 2.30368 79.5877C2.33016 78.2856 2.36798 76.9834 2.41716 75.6813C2.42851 75.3186 2.44364 74.9581 2.46066 74.5976C2.46066 74.3897 2.47012 74.1819 2.48903 73.9741C2.53442 73.2191 2.57225 72.4704 2.61764 71.7239Z" fill="#6C63FF"/>
<path id="Vector_4" opacity="0.1" d="M21.8127 39.0601H11.2837C12.9952 36.0562 14.8653 33.1696 16.8839 30.4159C18.4481 28.2612 20.0992 26.1616 21.8127 24.1384V39.0601Z" fill="#6C63FF"/>
<path id="Vector_5" opacity="0.1" d="M21.8127 39.9678V70.8163H2.6781C2.6781 70.7272 2.69134 70.636 2.69701 70.5469C2.71404 70.303 2.73106 70.0592 2.74997 69.8174C2.77078 69.5332 2.79347 69.2469 2.81806 68.9691C2.84265 68.6913 2.86913 68.3519 2.8975 68.0444C2.92587 67.7369 2.95234 67.4252 2.9845 67.1177C3.01665 66.8102 3.04502 66.5026 3.07906 66.1973C3.11311 65.8919 3.14337 65.5822 3.1793 65.2768C3.20767 65.0224 3.23793 64.77 3.2682 64.5155C3.3117 64.1571 3.35709 63.7966 3.40626 63.4403C3.40626 63.3873 3.4195 63.3321 3.42707 63.2812C3.77227 60.673 4.24264 58.0876 4.83611 55.5362C5.45734 52.8598 6.25062 50.2373 7.20974 47.6894C8.2291 45.024 9.42263 42.4466 10.7806 39.9784L21.8127 39.9678Z" fill="#6C63FF"/>
<path id="Vector_6" opacity="0.1" d="M26.3955 71.7217V101.06H67.394V71.7217H26.3955ZM26.3955 101.966V127.16C26.63 127.215 26.8627 127.269 27.0934 127.313C27.4074 127.381 27.7194 127.442 28.0391 127.495C28.0996 127.506 28.162 127.517 28.2282 127.523C28.353 127.546 28.4816 127.565 28.6065 127.585C28.9223 127.633 29.2363 127.674 29.5521 127.705C29.7016 127.722 29.8529 127.737 30.0042 127.75L30.3692 127.782C30.5678 127.799 30.7645 127.811 30.9593 127.818C31.0803 127.818 31.2014 127.831 31.3262 127.835C31.4208 127.835 31.5153 127.835 31.6137 127.835C31.712 127.835 31.852 127.835 31.9712 127.835C32.1338 127.835 32.2965 127.835 32.4572 127.835H32.6747C32.8374 127.835 33 127.835 33.1608 127.818H33.1722C33.2837 127.818 33.3972 127.818 33.5107 127.801C33.5422 127.803 33.5738 127.803 33.6053 127.801C33.6998 127.801 33.7944 127.801 33.8852 127.786H33.9514L34.585 127.731C34.793 127.71 35.003 127.682 35.2148 127.657L35.646 127.599C37.4004 127.324 39.1352 126.91 40.8377 126.361C44.662 125.165 48.4031 123.491 52.2255 122.266C57.1675 120.686 62.6278 119.91 67.4034 121.842V101.966H26.3955ZM67.394 39.0599V0.00199578C62.9053 -0.0525339 58.4289 0.536146 54.0733 1.75374C43.6918 4.67826 34.3769 11.0214 26.3955 19.1227V39.0578H28.4533V39.9634H26.3955V70.8161H67.394V39.9655H36.9019V39.0599H67.394ZM120.054 25.8667C117.486 25.7649 114.933 24.853 112.623 23.4448C108.207 20.7515 104.68 16.5927 100.738 13.0828C92.5487 5.77257 82.3922 1.3614 71.9729 0.26709V39.0599H130.5L130.646 38.8882L120.054 25.8667ZM125.386 24.8064L131.039 31.7624V22.9825C129.146 23.2455 127.487 23.8711 125.394 24.7979L125.386 24.8064ZM131.039 133.417V101.966H118.993C118.961 101.832 118.929 101.696 118.891 101.561C118.927 101.696 118.957 101.832 118.991 101.966H71.9804V124.711C72.4268 125.082 72.8675 125.472 73.3044 125.869C73.7753 126.293 74.2406 126.74 74.7077 127.179L75.1787 127.616C75.4038 127.828 75.6307 128.04 75.8596 128.24C76.3135 128.653 76.7718 129.06 77.2346 129.461C77.4634 129.673 77.6979 129.864 77.9306 130.064C81.6238 133.23 85.5197 136.087 89.5869 138.612C90.4985 139.178 91.4183 139.73 92.3463 140.269C92.9648 140.623 93.587 140.975 94.2112 141.316C95.1493 141.83 96.0949 142.324 97.0482 142.801C105.837 147.224 115.13 150.26 124.662 151.821C126.779 152.171 128.904 152.447 131.037 152.648V133.414H131.226L131.039 133.417ZM71.9804 39.9655V70.8161H131.047V39.9655H71.9804ZM71.9804 71.7217V101.06H131.047V71.7217H71.9804ZM135.631 22.9443V32.738L142.847 23.8605C140.456 23.4279 138.051 23.1189 135.631 22.9337V22.9443ZM135.631 71.7323V101.06H193.081V71.7217L135.631 71.7323ZM192.871 135.745L193.073 101.966H135.631V152.985C139.332 153.159 143.038 153.11 146.734 152.836H146.798C148.563 152.712 150.32 152.531 152.069 152.293H152.109C161.439 151.076 170.562 148.346 179.193 144.19M204.158 76.5528C203.943 75.9823 203.718 75.4161 203.489 74.8562C203.061 73.7958 202.609 72.7651 202.144 71.7344H197.661V101.06H208.994C208.989 92.7553 207.114 84.2723 204.164 76.5422L204.158 76.5528ZM197.661 101.976V131.031C200.854 127.599 203.551 123.674 205.493 119.186C207.829 113.783 208.898 107.931 208.985 101.972L197.661 101.976ZM197.661 63.1835V70.8183H201.724C200.495 68.19 199.141 65.6379 197.667 63.1729L197.661 63.1835ZM158.7 28.7001C158.401 28.5728 158.102 28.4434 157.802 28.3183C154.63 27.005 151.389 25.9128 148.097 25.0481L137.056 38.6358L136.844 38.8882L136.986 39.0621H176.284C170.811 34.8376 164.91 31.3558 158.706 28.6895L158.7 28.7001ZM177.436 39.9761H136.437L135.631 40.8032V70.8161H142.694H142.705H193.088V56.2784C188.531 50.0976 183.27 44.6133 177.441 39.9655L177.436 39.9761Z" fill="#6C63FF"/>
<path id="Vector_7" opacity="0.1" d="M21.8127 55.5277V70.8163H2.6781C2.6781 70.7272 2.69134 70.636 2.69701 70.5469C2.71404 70.303 2.73106 70.0592 2.74997 69.8174C2.77078 69.5332 2.79347 69.2469 2.81806 68.9691C2.84265 68.6913 2.86913 68.352 2.8975 68.0444C2.92587 67.7369 2.95234 67.4252 2.9845 67.1177C3.01665 66.8102 3.04502 66.5026 3.07906 66.1973C3.11311 65.8919 3.14337 65.5822 3.1793 65.2769C3.20767 65.0224 3.23793 64.77 3.2682 64.5155C3.3117 64.1571 3.35709 63.7966 3.40626 63.4403C3.40626 63.3873 3.4195 63.3321 3.42707 63.2812C3.77227 60.673 4.24264 58.0876 4.83611 55.5362L21.8127 55.5277Z" fill="#6C63FF"/>
<path id="Vector_8" opacity="0.1" d="M2.61764 71.7239H21.8128V101.06H4.0229C3.97562 101.361 3.93023 101.665 3.88105 101.968H21.8128V125.627C21.7806 125.617 21.7523 125.604 21.722 125.591C21.2151 125.366 20.712 125.129 20.2089 124.874L19.8874 124.711C19.3831 124.444 18.8787 124.161 18.3743 123.863C18.1985 123.759 18.0226 123.651 17.8486 123.54C15.0486 121.782 12.505 119.553 10.3059 116.932C10.2416 116.862 10.1811 116.788 10.1168 116.72C9.81039 116.347 9.50966 115.969 9.2184 115.583L8.89687 115.159C8.55265 114.686 8.21977 114.201 7.89635 113.709C7.84907 113.636 7.80368 113.564 7.7545 113.496C6.43917 111.451 5.34703 109.237 4.50141 106.901C4.47493 106.831 4.45224 106.755 4.42765 106.689C4.1679 105.94 3.93779 105.183 3.73731 104.42C3.65031 104.099 3.56709 103.783 3.49522 103.45C3.46874 103.353 3.44604 103.257 3.42524 103.162C2.35096 98.4603 2.22424 93.5762 2.22424 88.726C2.22424 88.1598 2.22424 87.5914 2.22424 87.0294C2.22424 85.0677 2.24505 83.0933 2.27531 81.121C2.27531 80.6099 2.29422 80.1009 2.30368 79.5877C2.33016 78.2856 2.36798 76.9834 2.41716 75.6813C2.42851 75.3186 2.44364 74.9581 2.46066 74.5976C2.46066 74.3897 2.47012 74.1819 2.48903 73.9741C2.53442 73.2191 2.57225 72.4704 2.61764 71.7239Z" fill="#6C63FF"/>
<path id="Vector_9" opacity="0.1" d="M40.8283 44.3832V70.8163H26.3955V44.3832H28.4533V35.4336H36.9V44.3832H40.8283Z" fill="#6C63FF"/>
<path id="Vector_10" opacity="0.1" d="M40.8282 71.7218H26.3973V101.058H40.8282V71.7218Z" fill="#6C63FF"/>
<path id="Vector_11" opacity="0.1" d="M26.3955 101.968H40.8283V126.357C39.1258 126.905 37.3909 127.318 35.6366 127.593L35.2053 127.652C34.9935 127.68 34.7836 127.703 34.5755 127.727C34.3675 127.75 34.1519 127.767 33.9419 127.782H33.8757C33.785 127.782 33.6866 127.795 33.5977 127.797H33.5012C33.3878 127.797 33.2743 127.809 33.1608 127.814C33 127.824 32.8393 127.826 32.6747 127.829C32.6048 127.829 32.5386 127.829 32.4686 127.829C32.3059 127.829 32.1452 127.829 31.9825 127.829H31.625C31.5286 127.829 31.4359 127.829 31.3357 127.829L30.9706 127.814C30.7815 127.814 30.5772 127.79 30.3805 127.776L30.0174 127.746L29.5654 127.699C29.2476 127.667 28.9318 127.627 28.6197 127.578L28.2414 127.519L28.0523 127.489C27.7365 127.434 27.4244 127.375 27.1066 127.307C26.874 127.262 26.6433 127.207 26.4087 127.154L26.3955 101.968Z" fill="#6C63FF"/>
<path id="Vector_12" opacity="0.1" d="M131.047 41.2614H119.146V70.8141H131.047V41.2614Z" fill="#6C63FF"/>
<path id="Vector_13" opacity="0.1" d="M131.049 71.7218V101.06H71.9803V88.4058H103.443V95.8709H119.146V71.7218H131.049Z" fill="#6C63FF"/>
<path id="Vector_14" opacity="0.1" d="M131.236 133.423H131.047V152.669C128.916 152.467 126.791 152.192 124.673 151.844C115.136 150.278 105.839 147.236 97.0481 142.805C94.5099 141.524 92.0234 140.126 89.5887 138.61C85.5216 136.084 81.6251 133.227 77.9305 130.062C77.0025 129.264 76.0864 128.449 75.1824 127.614C74.5563 127.035 73.9341 126.442 73.3043 125.865C72.8674 125.468 72.4267 125.078 71.9803 124.705V101.968H118.989C118.957 101.832 118.925 101.697 118.891 101.563C118.927 101.697 118.961 101.832 118.993 101.968H131.047V133.41C131.111 133.412 131.173 133.419 131.236 133.423Z" fill="#6C63FF"/>
<path id="Vector_15" opacity="0.1" d="M162.084 39.0601H154.329V36.3582H157.805V28.31C158.107 28.433 158.407 28.5595 158.706 28.6896V36.3582H162.084V39.0601Z" fill="#6C63FF"/>
<path id="Vector_16" opacity="0.1" d="M180.766 70.8163H142.697C142.697 70.8163 142.697 70.8163 142.711 70.8269L142.694 70.8163H135.631V41.2635H137.632V63.1073H146.777V50.1707H154.331V39.9678H162.085V50.1792H169.639V63.1158H180.766V70.8163Z" fill="#6C63FF"/>
<path id="Vector_17" opacity="0.1" d="M135.631 71.7218V101.06H180.766V71.7218H135.631ZM193.018 135.595L193.081 112.372H180.766V101.981H135.631V152.985C139.332 153.159 143.038 153.11 146.733 152.836H146.798C148.563 152.712 150.32 152.531 152.069 152.294H152.109C161.439 151.076 170.562 148.346 179.193 144.19" fill="#6C63FF"/>
<path id="Vector_18" opacity="0.1" d="M198.463 101.968H208.992C208.9 107.925 207.833 113.776 205.499 119.18C203.557 123.67 200.858 127.595 197.669 131.025V112.362H198.463V101.968Z" fill="#6C63FF"/>
<path id="Vector_19" opacity="0.1" d="M208.998 101.06H198.463V76.5423H204.164C207.114 84.2724 208.989 92.7555 208.998 101.06Z" fill="#6C63FF"/>
<path id="Vector_20" opacity="0.1" d="M131.049 49.4772H124.673V58.7428H131.049V49.4772Z" fill="#6C63FF"/>
<path id="Vector_21" opacity="0.1" d="M131.049 68.6828H124.673V70.8163H131.049V68.6828Z" fill="#6C63FF"/>
<path id="Vector_22" opacity="0.1" d="M131.049 71.7218H124.673V77.9463H131.049V71.7218Z" fill="#6C63FF"/>
<path id="Vector_23" opacity="0.1" d="M131.049 87.8883H124.673V97.1539H131.049V87.8883Z" fill="#6C63FF"/>
<path id="Vector_24" opacity="0.1" d="M131.049 107.094H124.673V116.359H131.049V107.094Z" fill="#6C63FF"/>
<path id="Vector_25" opacity="0.1" d="M131.047 133.41C131.111 133.41 131.173 133.41 131.236 133.423H131.047V135.576H124.673V126.299H131.047V133.41Z" fill="#6C63FF"/>
<path id="Vector_26" opacity="0.1" d="M131.047 145.501V152.658C128.916 152.456 126.791 152.181 124.673 151.833V145.501H131.047Z" fill="#6C63FF"/>
<path id="Vector_27" opacity="0.1" d="M99.3044 100.38H71.9803V101.06H99.3044V100.38Z" fill="#6C63FF"/>
<path id="Vector_28" opacity="0.1" d="M99.3044 101.966H71.9803V104.574H99.3044V101.966Z" fill="#6C63FF"/>
<path id="Vector_29" opacity="0.1" d="M99.3044 113.125H71.9803V117.32H99.3044V113.125Z" fill="#6C63FF"/>
<path id="Vector_30" opacity="0.1" d="M99.3027 125.871V130.066H77.9306C77.0026 129.271 76.0859 128.456 75.1806 127.619C74.5546 127.04 73.9342 126.446 73.3025 125.871H99.3027Z" fill="#6C63FF"/>
<path id="Vector_31" opacity="0.1" d="M99.3026 138.615V142.805H97.0463C94.5106 141.523 92.0248 140.124 89.5887 138.608L99.3026 138.615Z" fill="#6C63FF"/>
<path id="Vector_32" opacity="0.1" d="M152.114 74.5658H146.735V80.5972H152.114V74.5658Z" fill="#6C63FF"/>
<path id="Vector_33" opacity="0.1" d="M35.6497 46.4636H30.2708V52.4951H35.6497V46.4636Z" fill="#6C63FF"/>
<path id="Vector_34" opacity="0.1" d="M35.6497 60.4733H30.2708V66.5048H35.6497V60.4733Z" fill="#6C63FF"/>
<path id="Vector_35" opacity="0.1" d="M35.6497 74.483H30.2708V80.5145H35.6497V74.483Z" fill="#6C63FF"/>
<path id="Vector_36" opacity="0.1" d="M35.6497 88.4906H30.2708V94.5221H35.6497V88.4906Z" fill="#6C63FF"/>
<path id="Vector_37" opacity="0.1" d="M35.6497 102.5H30.2708V108.532H35.6497V102.5Z" fill="#6C63FF"/>
<path id="Vector_38" opacity="0.1" d="M35.6497 116.51H30.2708V122.541H35.6497V116.51Z" fill="#6C63FF"/>
<path id="Vector_39" opacity="0.1" d="M172.648 74.5658H167.27V80.5972H172.648V74.5658Z" fill="#6C63FF"/>
<path id="Vector_40" opacity="0.1" d="M152.114 89.4428H146.735V95.4743H152.114V89.4428Z" fill="#6C63FF"/>
<path id="Vector_41" opacity="0.1" d="M172.648 89.4428H167.27V95.4743H172.648V89.4428Z" fill="#6C63FF"/>
<path id="Vector_42" opacity="0.1" d="M152.114 104.318H146.735V110.349H152.114V104.318Z" fill="#6C63FF"/>
<path id="Vector_43" opacity="0.1" d="M172.648 104.318H167.27V110.349H172.648V104.318Z" fill="#6C63FF"/>
<path id="Vector_44" opacity="0.1" d="M152.114 119.195H146.735V125.226H152.114V119.195Z" fill="#6C63FF"/>
<path id="Vector_45" opacity="0.1" d="M172.648 119.195H167.27V125.226H172.648V119.195Z" fill="#6C63FF"/>
<path id="Vector_46" opacity="0.1" d="M152.114 134.072H146.735V140.103H152.114V134.072Z" fill="#6C63FF"/>
<path id="Vector_47" opacity="0.1" d="M172.648 134.072H167.27V140.103H172.648V134.072Z" fill="#6C63FF"/>
<path id="Vector_48" opacity="0.1" d="M146.735 152.836V148.947H152.112V152.283L146.735 152.836Z" fill="#6C63FF"/>
<path id="Vector_49" opacity="0.1" d="M3.40442 63.277V66.7274H21.8128V63.277H3.40442ZM5.23901 66.5111H3.73729V63.4891H5.25036L5.23901 66.5111ZM7.07172 66.5111H5.55865V63.4891H7.07172V66.5111ZM8.90064 66.5111H7.38757V63.4891H8.90064V66.5111ZM10.7333 66.5111H9.22216V63.4891H10.7352L10.7333 66.5111ZM12.5642 66.5111H11.0511V63.4891H12.5642V66.5111ZM14.3969 66.5111H12.8838V63.4891H14.3969V66.5111ZM16.2296 66.5111H14.7165V63.4891H16.2296V66.5111ZM18.0604 66.5111H16.5473V63.4891H18.0604V66.5111ZM19.8912 66.5111H18.3781V63.4891H19.8912V66.5111ZM21.722 66.5111H20.2089V63.4891H21.722V66.5111Z" fill="#6C63FF"/>
<path id="Vector_50" opacity="0.1" d="M3.40442 73.3166V76.7671H21.8128V73.3166H3.40442ZM5.23901 76.5487H3.73729V73.5351H5.25036L5.23901 76.5487ZM7.07172 76.5487H5.55865V73.5351H7.07172V76.5487ZM8.90064 76.5487H7.38757V73.5351H8.90064V76.5487ZM10.7333 76.5487H9.22216V73.5351H10.7352L10.7333 76.5487ZM12.5642 76.5487H11.0511V73.5351H12.5642V76.5487ZM14.3969 76.5487H12.8838V73.5351H14.3969V76.5487ZM16.2296 76.5487H14.7165V73.5351H16.2296V76.5487ZM18.0604 76.5487H16.5473V73.5351H18.0604V76.5487ZM19.8912 76.5487H18.3781V73.5351H19.8912V76.5487ZM21.722 76.5487H20.2089V73.5351H21.722V76.5487Z" fill="#6C63FF"/>
<path id="Vector_51" opacity="0.1" d="M3.40442 83.3605V86.8174H21.8128V83.3605H3.40442ZM5.23901 86.5926H3.73729V83.5768H5.25036L5.23901 86.5926ZM7.07172 86.5926H5.55865V83.5768H7.07172V86.5926ZM8.90064 86.5926H7.38757V83.5768H8.90064V86.5926ZM10.7333 86.5926H9.22216V83.5768H10.7352L10.7333 86.5926ZM12.5642 86.5926H11.0511V83.5768H12.5642V86.5926ZM14.3969 86.5926H12.8838V83.5768H14.3969V86.5926ZM16.2296 86.5926H14.7165V83.5768H16.2296V86.5926ZM18.0604 86.5926H16.5473V83.5768H18.0604V86.5926ZM19.8912 86.5926H18.3781V83.5768H19.8912V86.5926ZM21.722 86.5926H20.2089V83.5768H21.722V86.5926Z" fill="#6C63FF"/>
<path id="Vector_52" opacity="0.1" d="M3.40442 93.4044V96.8506H21.8128V93.4044H3.40442ZM5.23901 96.6364H3.73729V93.6186H5.25036L5.23901 96.6364ZM7.07172 96.6364H5.55865V93.6186H7.07172V96.6364ZM8.90064 96.6364H7.38757V93.6186H8.90064V96.6364ZM10.7333 96.6364H9.22216V93.6186H10.7352L10.7333 96.6364ZM12.5642 96.6364H11.0511V93.6186H12.5642V96.6364ZM14.3969 96.6364H12.8838V93.6186H14.3969V96.6364ZM16.2296 96.6364H14.7165V93.6186H16.2296V96.6364ZM18.0604 96.6364H16.5473V93.6186H18.0604V96.6364ZM19.8912 96.6364H18.3781V93.6186H19.8912V96.6364ZM21.722 96.6364H20.2089V93.6186H21.722V96.6364Z" fill="#6C63FF"/>
<path id="Vector_53" opacity="0.1" d="M3.48389 103.446C3.55765 103.771 3.64087 104.095 3.72787 104.415V103.663H5.24093V106.678H4.43144C4.45603 106.748 4.48062 106.825 4.50521 106.89H21.8128V103.446H3.48389ZM7.07742 106.678H5.56435V103.663H7.07742V106.678ZM8.90634 106.678H7.39327V103.663H8.90634V106.678ZM10.739 106.678H9.22219V103.663H10.7353L10.739 106.678ZM12.5699 106.678H11.0568V103.663H12.5699V106.678ZM14.4026 106.678H12.8895V103.663H14.4026V106.678ZM16.2353 106.678H14.7222V103.663H16.2353V106.678ZM18.0661 106.678H16.553V103.663H18.0661V106.678ZM19.8969 106.678H18.3838V103.663H19.8969V106.678ZM21.7277 106.678H20.2146V103.663H21.7277V106.678Z" fill="#6C63FF"/>
<path id="Vector_54" opacity="0.1" d="M7.7583 113.49C7.80558 113.558 7.85098 113.634 7.90015 113.702H8.90067V115.151C9.00847 115.295 9.11439 115.439 9.22408 115.575V113.694H10.7372V116.72H10.1244C10.1849 116.79 10.2435 116.864 10.3135 116.932H21.8185V113.49H7.7583ZM12.5642 116.72H11.0511V113.706H12.5642V116.72ZM14.3969 116.72H12.8838V113.706H14.3969V116.72ZM16.2296 116.72H14.7165V113.706H16.2296V116.72ZM18.0604 116.72H16.5473V113.706H18.0604V116.72ZM19.8912 116.72H18.3781V113.706H19.8912V116.72ZM21.722 116.72H20.209V113.706H21.722V116.72Z" fill="#6C63FF"/>
<path id="Vector_55" opacity="0.1" d="M17.8561 123.532C18.0282 123.642 18.2041 123.744 18.3819 123.854V123.748H19.8949V124.703L20.2165 124.87V123.748H21.7295V125.583C21.7585 125.599 21.789 125.612 21.8203 125.621V123.532H17.8561Z" fill="#6C63FF"/>
<path id="Vector_56" opacity="0.1" d="M118.891 101.561C118.927 101.697 118.957 101.832 118.991 101.966C118.961 101.832 118.929 101.697 118.891 101.561ZM28.4608 39.0537V39.9593H36.9094V39.0537H28.4608ZM118.891 101.561C118.927 101.697 118.957 101.832 118.991 101.966C118.961 101.832 118.929 101.697 118.891 101.561ZM118.891 101.561C118.927 101.697 118.957 101.832 118.991 101.966C118.961 101.832 118.929 101.697 118.891 101.561Z" fill="#6C63FF"/>
<path id="Vector_57" d="M87.304 80.5187C87.304 80.5187 86.5588 80.4021 86.5588 79.1848C86.5588 77.9674 86.0254 75.694 86.0254 75.694C86.0254 75.6834 85.5639 71.7345 84.9265 71.1068C84.2892 70.4791 83.4702 66.7932 83.4702 66.7932C83.4702 66.7932 83.3303 64.7933 83.0447 64.3628C82.7591 63.9323 82.3732 62.8783 81.804 61.3747C81.2347 59.871 78.861 58.8297 78.861 58.8297C78.861 58.8297 74.5696 56.0388 73.3535 55.129C73.2429 55.0543 73.1396 54.9669 73.0452 54.8682C72.8334 54.5564 71.9104 54.5501 71.9104 54.5501C71.8139 53.8672 71.7213 53.0825 71.691 52.372C71.691 52.2957 71.691 52.2194 71.6815 52.143C73.0376 51.2442 74.059 49.827 74.5583 48.1517C74.581 48.0712 74.5999 47.9863 74.6207 47.9057C74.7019 47.8757 74.7767 47.827 74.8402 47.7628C74.9037 47.6985 74.9546 47.6201 74.9895 47.5325C75.0992 47.2589 75.1011 46.9387 75.2372 46.6842C75.3961 46.383 75.6987 46.2219 75.937 45.9949C76.5385 45.4223 76.6936 44.4574 76.6652 43.5794C76.6463 42.8689 76.5442 42.1521 76.5839 41.4459L76.5952 41.2678C76.6066 41.1617 76.6198 41.0557 76.6368 40.9539C76.7295 40.428 76.9319 39.9317 77.0454 39.41C77.1588 38.8883 77.1702 38.3008 76.9054 37.8512C76.5177 37.1917 75.7101 37.0602 75.0008 36.9923C74.197 36.916 73.4783 37.0157 72.9639 36.267C72.7231 35.8758 72.4522 35.5089 72.1544 35.1706C72.0485 35.0603 71.0196 34.3562 71.0196 34.3096C70.0154 33.7881 68.8771 33.6902 67.8138 34.0339C67.2804 34.2078 66.7773 34.492 66.2364 34.634C65.0694 34.9437 63.7266 34.6086 62.7355 35.3572C62.1833 35.7814 61.8523 36.4558 61.5421 37.1132C61.2899 37.6547 61.034 38.1955 60.7742 38.7356C60.3562 39.6242 59.9307 40.5276 59.7548 41.5117C59.7178 41.7258 59.695 41.9427 59.6867 42.1606V42.1712C59.6867 42.2497 59.6867 42.3281 59.6867 42.4066V42.5063C59.6867 42.5805 59.6867 42.6526 59.698 42.7184C59.7094 42.7841 59.7075 42.8053 59.7132 42.8499C59.7188 42.8944 59.7283 42.9941 59.7397 43.0619C59.751 43.1298 59.7737 43.2486 59.7964 43.3419C59.8058 43.3822 59.8191 43.4203 59.8304 43.4585C59.8493 43.5306 59.872 43.6006 59.8966 43.6706C59.9099 43.7066 59.9231 43.7448 59.9382 43.7809C59.9666 43.8551 60.0007 43.9272 60.0347 43.9929C60.0498 44.0226 60.0612 44.0502 60.0763 44.0778C60.1291 44.1764 60.1872 44.2713 60.2503 44.362C60.6551 44.9282 61.2508 45.2887 61.6915 45.8189C61.6915 45.8401 61.6915 45.8613 61.6915 45.8804C61.6915 45.9398 61.6915 45.9971 61.6915 46.0564C61.7149 47.2389 61.9956 48.397 62.5091 49.4301C63.0227 50.4631 63.7536 51.3398 64.6382 51.9839C64.6382 52.0645 64.6477 52.1472 64.6514 52.2278C64.6883 52.8573 64.6814 53.4891 64.6306 54.1174C64.5536 54.0157 64.4572 53.9347 64.3485 53.8804C64.2398 53.8261 64.1217 53.7998 64.0027 53.8036C63.9215 53.7991 63.84 53.807 63.7606 53.8269L63.7436 53.812V53.8311C63.3275 53.9456 62.815 54.4313 62.3251 55.8119C62.3251 55.8119 60.8347 57.6951 59.6999 57.6167C58.5651 57.5382 55.6922 59.5763 55.6922 59.5763C55.6922 59.5763 52.8892 61.6164 52.2878 63.6948C51.9516 64.8733 51.5486 66.0265 51.0811 67.1474L47.6162 75.1532L46.9769 81.5049C46.9769 81.5049 47.3306 84.3297 47.2606 84.7602C47.1906 85.1907 48.7151 89.0738 48.7151 89.0738C48.7151 89.0738 53.7517 98.9969 55.8095 99.5058L55.957 99.3892C56.045 99.4408 56.1384 99.4799 56.235 99.5058L56.6587 99.1708C56.6841 99.5442 56.6733 99.9197 56.6265 100.291C56.3428 101.27 56.7324 107.664 57.228 108.918C57.7235 110.171 57.5476 126.605 57.5476 126.605L57.4776 128.055C57.4776 128.055 57.4776 128.102 57.4946 128.183L57.4776 128.526L57.5287 128.556C57.5817 129.016 57.5644 129.483 57.4776 129.937C57.2998 130.573 57.228 132.371 57.228 132.371C57.228 132.371 55.8114 142.525 56.4828 144.566C57.1542 146.606 57.7254 148.841 57.7254 148.841C57.7254 148.841 58.4346 151.386 57.7594 151.821C57.0842 152.255 55.1645 152.985 55.5598 154.045C55.9192 155.025 57.2828 157.651 57.4852 158.034L57.4682 158.236L57.1901 161.614C57.2352 162.06 57.343 162.496 57.5098 162.904C57.8143 163.64 58.4063 164.403 59.5316 164.32C59.7207 164.306 59.9401 164.28 60.152 164.248C62.2116 163.939 64.7479 162.908 64.7479 162.908C64.6162 162.814 64.4955 162.702 64.3885 162.575C64.2873 162.465 64.2071 162.333 64.1528 162.187C64.0985 162.041 64.0712 161.885 64.0727 161.727C64.103 161.112 63.076 158.181 62.8206 157.46C62.7809 157.356 62.7601 157.296 62.7601 157.296C62.7601 157.296 65.1016 154.552 64.712 152.12C64.712 152.12 62.1208 150.423 62.9738 149.492C63.8268 148.561 65.3512 145.887 65.3512 145.887C65.3512 145.887 65.4212 135.887 65.3512 134.394C65.2782 133.358 65.3221 132.316 65.4817 131.292C65.5101 131.137 65.5442 130.986 65.5801 130.838C66.7598 131.035 67.9506 131.137 69.1434 131.141C69.5784 131.141 70.0209 131.141 70.4673 131.111C70.4673 131.253 70.473 131.406 70.4843 131.57C70.5827 134.047 70.7661 138.39 70.9155 140.004C71.1274 142.318 72.2981 148.553 72.2981 148.553C72.2981 148.553 70.0644 150.16 72.6877 154.122C72.6877 154.122 72.6877 155.557 72.5137 155.765C72.328 156.445 72.1783 157.136 72.0655 157.835C71.9558 158.582 71.9104 159.337 72.0882 159.729C72.5137 160.666 75.067 160.59 75.067 160.59L75.1294 160.577C75.6115 160.521 76.0986 160.573 76.5626 160.73C77.0265 160.887 77.4581 161.146 77.8322 161.491C78.8024 162.365 82.4848 161.981 84.4783 161.703C85.2594 161.593 85.7814 161.491 85.7814 161.491C85.8067 161.392 85.8157 161.289 85.8079 161.186C85.7871 160.637 85.4032 159.432 82.8007 158.357C82.8007 158.357 80.3533 156.512 80.3873 154.904H80.3363H80.0526C80.2587 154.891 80.3911 154.904 80.3911 154.904C80.3911 154.904 79.4322 150.981 79.8237 150.663C80.2152 150.345 79.0426 145.997 79.0426 145.997C79.0426 145.997 78.3712 138.702 78.3353 138.191C78.3368 137.752 78.396 137.316 78.5111 136.897L78.3353 132.897C78.3353 132.897 78.3012 131.567 78.3353 131.135C78.3295 130.759 78.3023 130.385 78.2539 130.013C78.2369 129.864 78.2199 129.71 78.201 129.557C79.1183 129.296 79.714 129.054 79.714 129.054L79.6081 115.132C80.3873 113.435 80.5311 109.713 80.5273 107.073C80.5273 105.376 80.4592 104.121 80.4592 104.121L81.524 102.172C81.524 102.172 81.7699 99.8388 81.3803 99.3277C81.2082 99.0965 81.2857 98.8569 81.4276 98.6597C81.5012 98.5942 81.579 98.5346 81.6602 98.4815C81.6602 98.4815 81.6489 98.4624 81.6356 98.4349C81.71 98.3652 81.789 98.3021 81.872 98.2461C81.872 98.2461 81.4938 97.5887 81.8323 97.3108C82.1501 97.5526 82.4338 97.735 82.6494 97.8835C82.6343 98.0383 82.6191 98.1273 82.6191 98.1273L82.7099 97.9153C82.9179 98.0468 83.0447 98.1273 83.0447 98.1273C83.0447 98.1273 84.7128 94.4012 84.6769 93.8519C84.641 93.3026 85.8117 90.9889 85.8117 90.9889C85.8117 90.9889 85.9535 89.7737 86.5928 89.2647C87.2321 88.7557 87.0883 85.0677 87.0883 85.0677C87.0883 85.0677 87.2661 83.1463 87.6917 82.3616C88.1172 81.577 87.304 80.5187 87.304 80.5187ZM55.3858 78.8836L55.418 79.7722C55.2288 79.4308 55.0926 79.1848 55.0926 79.1848L55.3858 78.8836Z" fill="url(#paint0_linear_0_1)"/>
<path id="Vector_58" d="M83.1354 96.5177L82.7269 98.4688C82.7269 98.4688 79.4549 96.5962 78.8648 94.2167C78.2747 91.8372 79.8521 90.9337 79.8521 90.9337L82.9009 92.3822L83.1354 96.5177Z" fill="white"/>
<path id="Vector_59" opacity="0.1" d="M83.1354 96.5177L82.7269 98.4688C82.7269 98.4688 79.4549 96.5962 78.8648 94.2167C78.2747 91.8372 79.8521 90.9337 79.8521 90.9337L82.9009 92.3822L83.1354 96.5177Z" fill="black"/>
<path id="Vector_60" d="M64.7726 162.921C64.7726 162.921 61.7464 164.168 59.6659 164.325C58.5614 164.407 57.9808 163.648 57.6819 162.916C57.5187 162.51 57.4134 162.077 57.3699 161.633L57.6403 158.272L57.7841 156.482L62.2041 155.195L62.8302 157.341L62.8888 157.504C63.1403 158.221 64.1484 161.137 64.1182 161.746C64.1169 161.902 64.1437 162.056 64.197 162.2C64.2503 162.344 64.329 162.474 64.4283 162.583C64.5298 162.712 64.6455 162.825 64.7726 162.921Z" fill="white"/>
<path id="Vector_61" d="M85.4429 161.211C85.4504 161.313 85.4415 161.416 85.4164 161.515C85.4164 161.515 78.9442 162.726 77.6203 161.515C77.247 161.161 76.8119 160.898 76.3429 160.744C75.8739 160.59 75.3813 160.548 74.8968 160.62C74.8968 160.62 72.3927 160.696 71.9747 159.771C71.8007 159.383 71.8461 158.63 71.9539 157.888C72.0639 157.193 72.2104 156.505 72.3927 155.829L72.4929 155.74L73.0887 155.203L80.0639 154.972H80.1169C80.0828 156.571 82.4848 158.406 82.4848 158.406C85.0362 159.466 85.4126 160.664 85.4429 161.211Z" fill="white"/>
<path id="Vector_62" opacity="0.1" d="M85.4428 161.211C85.4495 161.314 85.4399 161.416 85.4145 161.515C85.4145 161.515 78.9442 162.726 77.6203 161.515C77.2472 161.161 76.8124 160.899 76.3438 160.745C75.8751 160.591 75.3829 160.548 74.8987 160.62C74.8987 160.62 72.3926 160.696 71.9765 159.771C71.8025 159.381 71.846 158.63 71.9538 157.888C72.9184 157.996 74.441 158.266 75.0386 158.908C75.9427 159.886 77.4747 160.861 78.4146 160.938C79.1504 160.991 83.5515 161.148 85.4428 161.211Z" fill="black"/>
<path id="Vector_63" opacity="0.1" d="M64.7726 162.921C64.7726 162.921 61.7464 164.168 59.666 164.325C58.5614 164.407 57.9808 163.648 57.6838 162.914C58.4536 163.205 59.5222 163.51 60.0839 163.23C60.7497 162.899 63.1101 162.685 64.434 162.594C64.5348 162.718 64.6484 162.827 64.7726 162.921Z" fill="black"/>
<path id="Vector_64" d="M69.2626 62.4287C66.766 61.3407 63.5545 57.7461 64.3564 56.0664C64.5345 55.6426 64.6404 55.1851 64.6685 54.7176C64.7201 54.083 64.7277 53.4449 64.6912 52.8089C64.635 51.7674 64.5232 50.7307 64.3564 49.7041C64.3564 49.7041 72.1506 49.9014 71.6967 51.1887C71.5643 51.5662 71.5435 52.2215 71.5794 52.9553C71.6154 53.689 71.7099 54.5183 71.8083 55.2202C71.9445 56.1831 72.0807 56.9168 72.0807 56.9168C72.0807 56.9168 71.604 57.6655 71.3241 57.7058C71.0442 57.7461 72.8448 63.979 69.2626 62.4287Z" fill="#CF6F80"/>
<path id="Vector_65" opacity="0.1" d="M62.8831 157.504L62.8245 157.576C60.4943 154.416 57.6763 158.355 57.6763 158.355L57.6346 158.272L57.7784 156.482L62.1984 155.195L62.8245 157.341L62.8831 157.504Z" fill="black"/>
<path id="Vector_66" opacity="0.1" d="M80.1188 155.195C80.1188 155.195 78.4166 155.154 77.5088 156.054C76.6009 156.953 72.213 156.249 72.4022 156.054C72.4582 155.957 72.492 155.846 72.5005 155.731L73.0963 155.195L80.0715 154.964C80.098 155.106 80.1188 155.195 80.1188 155.195Z" fill="black"/>
<path id="Vector_67" d="M65.7825 130.38C65.6558 130.731 65.5595 131.096 65.4951 131.468C65.3373 132.487 65.2935 133.524 65.3646 134.556C65.4345 136.04 65.3646 145.989 65.3646 145.989C65.3646 145.989 63.8685 148.642 63.0344 149.577C62.2004 150.512 64.7366 152.192 64.7366 152.192C65.1149 154.609 62.8226 157.341 62.8226 157.341C60.4925 154.181 57.6744 158.121 57.6744 158.121C57.6744 158.121 56.1424 155.152 55.7604 154.092C55.3783 153.032 57.2564 152.298 57.9165 151.867C58.5766 151.437 57.8843 148.898 57.8843 148.898C57.8843 148.898 57.3264 146.674 56.6644 144.644C56.0025 142.614 57.3945 132.511 57.3945 132.511C57.3945 132.511 57.4663 130.717 57.6385 130.091C57.7253 129.64 57.7426 129.175 57.6895 128.717C57.6782 128.562 57.6649 128.433 57.6555 128.346C57.646 128.259 57.6385 128.219 57.6385 128.219L57.6649 128.168L58.6106 126.191C58.6106 126.191 66.2365 129.135 65.7825 130.38Z" fill="#6C63FF"/>
<path id="Vector_68" d="M80.1188 154.961C80.1188 154.961 78.4166 154.921 77.5087 155.81C76.6009 156.698 72.213 156.005 72.4021 155.81C72.5913 155.615 72.5761 154.17 72.5761 154.17C70.002 150.23 72.1979 148.631 72.1979 148.631C72.1979 148.631 71.0479 142.428 70.8399 140.127C70.6943 138.519 70.5146 134.199 70.4181 131.733C70.3765 130.672 70.3519 129.943 70.3519 129.943L72.4551 129.468L72.7256 129.406L77.7981 128.265C77.7981 128.265 77.9381 129.326 78.0326 130.193C78.0798 130.564 78.1063 130.937 78.1121 131.311C78.078 131.735 78.1121 133.063 78.1121 133.063L78.2842 137.043C78.1717 137.461 78.1138 137.894 78.1121 138.331C78.1461 138.837 78.8062 146.095 78.8062 146.095C78.8062 146.095 79.9542 150.425 79.5627 150.737C79.1712 151.049 80.1188 154.961 80.1188 154.961Z" fill="#6C63FF"/>
<path id="Vector_69" opacity="0.1" d="M71.6967 51.1887C71.5643 51.5662 71.5435 52.2215 71.5795 52.9553C70.5354 53.6602 69.3353 54.0206 68.1168 53.9951C66.8983 53.9696 65.711 53.5592 64.6912 52.8111C64.6351 51.7688 64.5233 50.7314 64.3564 49.7041C64.3564 49.7041 72.1506 49.8971 71.6967 51.1887Z" fill="black"/>
<path id="Vector_70" d="M74.7096 46.5018C74.7112 47.266 74.6039 48.0256 74.3919 48.7519C73.9181 50.3793 72.9464 51.7665 71.6486 52.6682C70.3509 53.57 68.8106 53.9283 67.3 53.6799C65.7895 53.4314 64.4059 52.5922 63.3937 51.3105C62.3816 50.0288 61.8062 48.3871 61.7691 46.6757C61.7691 46.6163 61.7691 46.5612 61.7691 46.5018C61.7544 45.5385 61.911 44.5815 62.2296 43.6867C62.5482 42.7919 63.0225 41.9772 63.6249 41.2902C64.2273 40.6031 64.9456 40.0574 65.738 39.6849C66.5304 39.3124 67.3811 39.1205 68.2403 39.1205C69.0996 39.1205 69.9502 39.3124 70.7427 39.6849C71.5351 40.0574 72.2534 40.6031 72.8558 41.2902C73.4581 41.9772 73.9325 42.7919 74.2511 43.6867C74.5697 44.5815 74.7262 45.5385 74.7115 46.5018H74.7096Z" fill="#CF6F80"/>
<path id="Vector_71" opacity="0.1" d="M69.2626 62.4287C66.766 61.3407 63.5545 57.746 64.3564 56.0664C64.5345 55.6425 64.6404 55.1851 64.6685 54.7176L68.0862 57.8669L70.2007 59.8117L71.8083 55.2223C71.9445 56.1852 72.0807 56.9189 72.0807 56.9189C72.0807 56.9189 71.604 57.6676 71.3241 57.7079C71.0442 57.7482 72.8448 63.9789 69.2626 62.4287Z" fill="black"/>
<path id="Vector_72" d="M78.1008 76.3472L75.2467 130.108L71.5246 130.382L61.8864 99.2089L63.4675 62.1996L63.8004 54.3804L68.0861 58.3271L70.2025 60.2719L71.8575 55.5489L74.9347 58.5562L78.1008 76.3472Z" fill="#6C63FF"/>
<path id="Vector_73" opacity="0.1" d="M65.7825 130.38C65.6557 130.731 65.5594 131.096 65.495 131.468C62.7866 130.999 60.1561 130.077 57.6913 128.734L57.6403 128.704L57.6573 128.363L57.6667 128.185L58.6124 126.208C58.6124 126.208 66.2364 129.135 65.7825 130.38Z" fill="black"/>
<path id="Vector_74" opacity="0.1" d="M72.4986 131.476C71.8062 131.608 71.1079 131.697 70.4068 131.743C70.3652 130.683 70.3406 129.954 70.3406 129.954L72.4437 129.478L72.4986 131.476Z" fill="black"/>
<path id="Vector_75" opacity="0.1" d="M78.0213 130.204C76.6766 130.596 74.5999 131.037 72.7407 130.762L72.7142 129.417L77.7868 128.276C77.7868 128.276 77.9268 129.326 78.0213 130.204Z" fill="black"/>
<path id="Vector_76" opacity="0.1" d="M72.7066 131.008C64.9522 132.492 57.8502 128.236 57.8502 128.236L57.9183 126.794C57.9183 126.794 58.0942 110.445 57.6062 109.191C57.1183 107.938 56.7381 101.582 57.0142 100.607C57.2904 99.631 56.0061 85.002 56.0061 85.002L55.7981 79.0639L48.1836 75.6049L51.588 67.6479C52.0478 66.5322 52.4433 65.3847 52.772 64.2122C53.364 62.1466 56.1121 60.1171 56.1121 60.1171C56.1121 60.1171 58.9302 58.0896 60.0441 58.166C61.1581 58.2423 62.6183 56.3718 62.6183 56.3718C63.6963 53.2903 64.6722 54.6858 64.6722 54.6858C64.6722 54.8321 64.6722 54.6858 64.6193 55.1418C64.241 58.5244 70.7359 69.213 70.8285 69.4017L71.447 86.2957L72.073 107.675L72.7066 131.008Z" fill="black"/>
<path id="Vector_77" d="M72.4986 131.008C64.7441 132.492 57.6402 128.236 57.6402 128.236L57.7102 126.794C57.7102 126.794 57.8861 110.445 57.3963 109.191C56.9064 107.938 56.5281 101.582 56.8062 100.607C57.0842 99.631 55.7981 85.002 55.7981 85.002L55.5881 79.0639L47.9698 75.5922L51.3743 67.6351C51.8331 66.519 52.2285 65.3715 52.5582 64.1995C53.1483 62.1339 55.8983 60.1043 55.8983 60.1043C55.8983 60.1043 58.7164 58.0769 59.8285 58.1532C60.9406 58.2296 62.4026 56.3591 62.4026 56.3591C63.4826 53.2776 64.6722 54.6731 64.6722 54.6731C64.6722 54.8194 64.5587 54.8851 64.6193 55.129C65.4515 58.4098 70.5278 69.2003 70.6205 69.389L71.2465 86.2829L71.8725 107.662L72.4986 131.008Z" fill="white"/>
<path id="Vector_78" opacity="0.1" d="M70.4087 69.8704C69.5746 69.4802 65.1565 63.8241 65.1565 63.8241V62.5368C64.9957 62.1127 64.0406 62.3714 63.2651 62.6683L63.598 54.8491L63.9763 55.2011C64.8047 58.4798 70.3123 69.6817 70.4087 69.8704Z" fill="black"/>
<path id="Vector_79" d="M70.6186 69.4017C69.7826 69.0115 65.3645 63.3554 65.3645 63.3554V62.0681C65.2037 61.644 64.2486 61.9027 63.4731 62.1996L63.8079 54.3804L64.1862 54.7324C65.0165 58.0111 70.5259 69.2151 70.6186 69.4017Z" fill="white"/>
<path id="Vector_80" opacity="0.1" d="M57.8502 97.6099C57.9543 97.6099 63.2424 96.9864 63.2424 96.9864C63.2424 96.9864 66.4445 104.046 66.2345 105.764C66.0246 107.482 65.6444 109.003 64.3564 108.733C63.0684 108.464 57.4247 108.945 57.4247 108.945L57.8502 97.6099Z" fill="black"/>
<path id="Vector_81" d="M57.6403 97.1412C57.7443 97.1412 63.0325 96.5177 63.0325 96.5177C63.0325 96.5177 66.2326 103.58 66.0246 105.296C65.8165 107.011 65.4326 108.534 64.1465 108.265C62.8604 107.995 57.2147 108.477 57.2147 108.477L57.6403 97.1412Z" fill="white"/>
<path id="Vector_82" d="M61.6254 93.8264C61.6254 93.8264 66.4785 96.751 66.5826 97.6438C66.6866 98.5366 64.1125 97.2536 63.5564 97.0988C63.1904 96.9999 62.8179 96.9346 62.4424 96.9037L58.7335 97.0161L61.6254 93.8264Z" fill="#CF6F80"/>
<path id="Vector_83" opacity="0.1" d="M69.0545 70.2352C69.3365 70.2352 69.5651 69.9788 69.5651 69.6626C69.5651 69.3463 69.3365 69.09 69.0545 69.09C68.7725 69.09 68.5438 69.3463 68.5438 69.6626C68.5438 69.9788 68.7725 70.2352 69.0545 70.2352Z" fill="black"/>
<path id="Vector_84" d="M69.0545 70.0019C69.3365 70.0019 69.5651 69.7455 69.5651 69.4293C69.5651 69.1131 69.3365 68.8567 69.0545 68.8567C68.7725 68.8567 68.5438 69.1131 68.5438 69.4293C68.5438 69.7455 68.7725 70.0019 69.0545 70.0019Z" fill="#3F3D56"/>
<path id="Vector_85" opacity="0.1" d="M69.9945 95.0226C70.2766 95.0226 70.5052 94.7662 70.5052 94.4499C70.5052 94.1337 70.2766 93.8773 69.9945 93.8773C69.7125 93.8773 69.4839 94.1337 69.4839 94.4499C69.4839 94.7662 69.7125 95.0226 69.9945 95.0226Z" fill="black"/>
<path id="Vector_86" d="M69.9945 94.7872C70.2766 94.7872 70.5052 94.5308 70.5052 94.2146C70.5052 93.8983 70.2766 93.642 69.9945 93.642C69.7125 93.642 69.4839 93.8983 69.4839 94.2146C69.4839 94.5308 69.7125 94.7872 69.9945 94.7872Z" fill="#3F3D56"/>
<path id="Vector_87" opacity="0.1" d="M69.5633 82.6289C69.8453 82.6289 70.0739 82.3725 70.0739 82.0563C70.0739 81.74 69.8453 81.4837 69.5633 81.4837C69.2812 81.4837 69.0526 81.74 69.0526 82.0563C69.0526 82.3725 69.2812 82.6289 69.5633 82.6289Z" fill="black"/>
<path id="Vector_88" d="M69.5633 82.3956C69.8453 82.3956 70.0739 82.1392 70.0739 81.823C70.0739 81.5067 69.8453 81.2504 69.5633 81.2504C69.2812 81.2504 69.0526 81.5067 69.0526 81.823C69.0526 82.1392 69.2812 82.3956 69.5633 82.3956Z" fill="#3F3D56"/>
<path id="Vector_89" d="M81.3349 96.7849C81.3349 96.7849 81.6829 97.3702 81.3349 97.6438C80.9869 97.9174 81.369 98.5791 81.369 98.5791C81.369 98.5791 80.5009 99.1496 80.8829 99.6628C81.265 100.176 81.0229 102.494 81.0229 102.494L79.9789 104.432C79.9789 104.432 80.0413 105.681 80.045 107.37C80.045 110.004 79.907 113.706 79.1429 115.395L79.2488 129.245C79.2488 129.245 75.5928 130.742 72.5327 130.286L72.0787 108.061C72.0787 108.061 72.7407 95.4573 72.9847 93.0397C73.1275 91.7845 73.1856 90.5191 73.1587 89.2541C73.1587 89.2541 73.0547 85.4707 72.7048 83.7147C72.7048 83.7147 72.3265 76.1076 72.2887 74.0016C72.2717 72.9943 72.319 70.0549 72.3719 67.2598C72.4305 64.2038 72.4967 61.3217 72.4967 61.3217L71.8064 55.1969C71.8064 55.1969 72.4967 55.1184 72.7048 55.4302C72.798 55.5278 72.8993 55.6152 73.0074 55.691C74.1989 56.5945 78.409 59.3727 78.409 59.3727C78.409 59.3727 80.7392 60.4118 81.2971 61.9006C81.8551 63.3894 82.2428 64.4455 82.5132 64.8697C82.7837 65.2938 82.9312 67.2873 82.9312 67.2873C82.9312 67.2873 83.7331 70.9562 84.3592 71.5776C84.9852 72.199 85.4429 76.1521 85.4429 76.1521L79.9108 81.0298C79.9108 81.0298 79.4247 89.1438 79.3207 89.4577C79.2166 89.7716 81.3349 96.7849 81.3349 96.7849Z" fill="white"/>
<path id="Vector_90" d="M81.5449 96.7849C81.5449 96.7849 81.8911 97.3702 81.5449 97.6438C81.1988 97.9174 81.5771 98.5791 81.5771 98.5791C81.5771 98.5791 80.7146 99.1559 81.0929 99.6691C81.4712 100.182 81.2329 102.5 81.2329 102.5L80.1888 104.439C80.1888 104.439 80.2513 105.688 80.2569 107.376C80.2569 110.01 80.1189 113.713 79.3548 115.401L79.4588 129.252C79.4588 129.252 75.7972 130.749 72.7408 130.293L72.2887 108.067C72.2887 108.067 72.9507 95.4637 73.1947 93.046C73.3376 91.7909 73.3952 90.5254 73.3668 89.2605C73.3668 89.2605 73.2628 85.477 72.9148 83.7211C72.9148 83.7211 72.5365 76.1139 72.4968 74.008C72.4798 73.0006 72.5289 70.0613 72.58 67.2661C72.6386 64.2101 72.7048 61.328 72.7048 61.328L71.7932 55.1205C71.7932 55.1205 72.7048 55.1205 72.9148 55.4365C73.0071 55.5353 73.1085 55.6227 73.2174 55.6974C74.4089 56.6008 78.6209 59.379 78.6209 59.379C78.6209 59.379 80.9492 60.4182 81.5071 61.907C82.0651 63.3957 82.4528 64.4519 82.7251 64.876C82.9975 65.3002 83.1412 67.2937 83.1412 67.2937C83.1412 67.2937 83.9431 70.9626 84.5692 71.584C85.1952 72.2054 85.6472 76.15 85.6472 76.15L80.1151 81.0277C80.1151 81.0277 79.629 89.1417 79.5231 89.4556C79.4172 89.7694 81.5449 96.7849 81.5449 96.7849Z" fill="white"/>
<path id="Vector_91" opacity="0.1" d="M74.9195 63.1285L75.4188 64.7615L72.7898 67.7306C72.8485 64.6767 72.9147 61.7924 72.9147 61.7924L72.0031 55.585C72.0031 55.585 72.9147 55.585 73.1246 55.901C73.2167 55.9995 73.3182 56.0862 73.4272 56.1597L75.6628 63.3915L74.9195 63.1285Z" fill="black"/>
<path id="Vector_92" d="M74.7097 62.6598L75.2109 64.2928L72.5819 67.2619C72.6405 64.2059 72.7067 61.3238 72.7067 61.3238L71.7932 55.1163C71.7932 55.1163 72.7067 55.1163 72.9148 55.4323C73.0075 55.5305 73.1089 55.6179 73.2174 55.6931L75.4548 62.9228L74.7097 62.6598Z" fill="white"/>
<path id="Vector_93" opacity="0.1" d="M74.7096 46.5018C74.7112 47.266 74.6039 48.0256 74.3919 48.7519C74.3562 48.7582 74.3197 48.7563 74.2846 48.7465C74.2495 48.7367 74.2165 48.719 74.1876 48.6947C74.1385 46.786 73.3006 44.9939 72.2698 43.4691C71.9804 43.0087 71.6296 42.601 71.2296 42.2603C70.8252 41.9197 70.3222 41.7602 69.8187 41.8128C69.2513 41.8998 68.75 42.3324 68.177 42.3875C67.4204 42.4575 66.7433 41.8701 65.9925 41.8404C65.6872 41.8436 65.3861 41.9198 65.1092 42.0639C64.8323 42.208 64.586 42.4167 64.3867 42.6759C63.9923 43.1992 63.6992 43.8088 63.5262 44.4659C63.2288 45.4623 63.0669 46.5032 63.0458 47.5537C63.0363 48.1475 62.9853 48.8919 62.4935 49.1082C62.5305 48.6715 62.4863 48.2309 62.3635 47.8144C62.2408 47.3979 62.0423 47.0144 61.7805 46.6884L61.7691 46.6757C61.7691 46.6163 61.7691 46.5612 61.7691 46.5018C61.7544 45.5385 61.911 44.5815 62.2296 43.6867C62.5482 42.7919 63.0225 41.9772 63.6249 41.2902C64.2273 40.6031 64.9456 40.0574 65.738 39.6849C66.5304 39.3124 67.3811 39.1205 68.2403 39.1205C69.0996 39.1205 69.9502 39.3124 70.7427 39.6849C71.5351 40.0574 72.2534 40.6031 72.8558 41.2902C73.4581 41.9772 73.9325 42.7919 74.2511 43.6867C74.5697 44.5815 74.7262 45.5385 74.7115 46.5018H74.7096Z" fill="black"/>
<path id="Vector_94" d="M70.9194 34.9797C69.9365 34.4614 68.8187 34.3633 67.776 34.704C67.2521 34.8779 66.7584 35.16 66.227 35.3021C65.0922 35.6096 63.7682 35.2766 62.7942 36.021C62.2533 36.4452 61.928 37.1153 61.6253 37.7664L60.8688 39.3824C60.4565 40.2668 60.0404 41.166 59.8683 42.1394C59.6962 43.1128 59.8002 44.2029 60.3506 44.9855C60.7515 45.5559 61.3435 45.9144 61.7785 46.4509C62.0391 46.7773 62.2368 47.1605 62.3592 47.5765C62.4816 47.9925 62.526 48.4324 62.4897 48.8686C62.9833 48.6565 63.0306 47.91 63.0419 47.3162C63.063 46.2657 63.225 45.2248 63.5223 44.2284C63.695 43.5711 63.9881 42.9614 64.3829 42.4384C64.5823 42.1794 64.8287 41.9709 65.1055 41.8268C65.3824 41.6827 65.6834 41.6064 65.9886 41.6029C66.7452 41.6326 67.4242 42.2179 68.1731 42.1479C68.7405 42.0949 69.2436 41.6601 69.8148 41.5753C70.3184 41.5219 70.8217 41.6815 71.2257 42.0228C71.6256 42.363 71.9759 42.7708 72.2641 43.2316C73.2968 44.7564 74.1346 46.5442 74.1838 48.4571C74.3975 48.6332 74.7058 48.4041 74.8117 48.1327C74.9176 47.8612 74.9214 47.5431 75.0557 47.2844C75.2108 46.9853 75.5077 46.8263 75.7404 46.6015C76.3305 46.031 76.478 45.0703 76.4553 44.1987C76.4326 43.327 76.2813 42.4427 76.4288 41.5859C76.5177 41.0599 76.7182 40.5679 76.8279 40.0483C76.9376 39.5288 76.9508 38.9456 76.6917 38.4981C76.3134 37.8406 75.5172 37.7113 74.8231 37.6498C74.0344 37.5734 73.3289 37.671 72.8258 36.9266C72.5897 36.5381 72.3239 36.1734 72.0315 35.8365C71.9312 35.7262 70.9194 35.0264 70.9194 34.9797Z" fill="#512E4E"/>
<path id="Vector_95" opacity="0.1" d="M50.3625 79.7022L48.386 75.6049L47.76 81.9269C47.76 81.9269 48.108 84.7348 48.038 85.1653C47.9681 85.5958 49.4641 89.4556 49.4641 89.4556C49.4641 89.4556 54.4062 99.3256 56.4242 99.8346L63.2425 94.3715L61.4344 91.7969C61.4344 91.7969 60.8083 91.5233 60.6513 91.7969C60.6513 91.7969 57.2942 85.3201 56.9462 84.8514C56.5982 84.3827 56.6663 83.4475 56.6663 83.4475C56.6663 83.4475 56.1443 82.824 56.3183 82.2387C56.4923 81.6533 55.3102 79.6238 55.3102 79.6238L56.3883 78.4934L50.3625 79.7022Z" fill="black"/>
<path id="Vector_96" d="M48.4901 75.1384L47.9681 75.6049L47.342 81.9269C47.342 81.9269 47.69 84.7348 47.6201 85.1653C47.5501 85.5958 49.048 89.4556 49.048 89.4556C49.048 89.4556 53.9882 99.3256 56.0062 99.8346L62.8264 94.3715L61.0164 91.7969C61.0164 91.7969 60.3904 91.5233 60.2334 91.7969C60.2334 91.7969 56.8763 85.3201 56.5283 84.8514C56.1802 84.3827 56.2502 83.4475 56.2502 83.4475C56.2502 83.4475 55.7282 82.824 55.9022 82.2387C56.0762 81.6533 54.8922 79.6238 54.8922 79.6238L55.9703 78.4934L48.4901 75.1384Z" fill="white"/>
<path id="Vector_97" opacity="0.1" d="M80.883 99.9045C81.2612 100.42 81.0229 102.734 81.0229 102.734L79.9789 104.672C79.9789 104.672 80.0413 105.923 80.0451 107.609L78.2899 108.224C78.1313 108.28 77.9631 108.292 77.7995 108.26C77.6358 108.228 77.4813 108.152 77.349 108.039C77.2166 107.927 77.1103 107.78 77.0387 107.612C76.9671 107.444 76.9325 107.259 76.9376 107.073L77.2402 96.1275L81.335 97.8835C80.987 98.1549 81.369 98.8208 81.369 98.8208C81.369 98.8208 80.5009 99.3892 80.883 99.9045Z" fill="black"/>
<path id="Vector_98" d="M81.0928 99.6691C81.4711 100.184 81.2328 102.5 81.2328 102.5L80.1888 104.439C80.1888 104.439 80.2512 105.688 80.2568 107.376L78.4695 108.002C78.3142 108.056 78.1496 108.067 77.9894 108.036C77.8291 108.004 77.678 107.93 77.5485 107.82C77.419 107.709 77.3148 107.566 77.2448 107.401C77.1747 107.237 77.1407 107.056 77.1456 106.873L77.4501 95.8942L81.5467 97.6502C81.1968 97.9216 81.5789 98.5854 81.5789 98.5854C81.5789 98.5854 80.7146 99.1559 81.0928 99.6691Z" fill="white"/>
<path id="Vector_99" d="M82.4489 94.4521C82.4489 94.4521 82.1709 96.4435 81.4748 96.5601C80.7788 96.6768 80.4668 99.7815 79.7726 99.6713C79.0785 99.561 79.5381 96.7849 79.5627 96.2463C79.5873 95.7076 78.8062 93.4765 79.3906 92.9697C79.975 92.4628 81.8247 92.9697 81.8247 92.9697L82.4489 94.4521Z" fill="#CF6F80"/>
<path id="Vector_100" opacity="0.1" d="M83.9299 79.1169L85.2425 76.1478C85.2425 76.1478 85.7645 78.4107 85.7645 79.6195C85.7645 80.8283 86.4945 80.9471 86.4945 80.9471C86.4945 80.9471 87.2946 82.0075 86.8728 82.7794C86.451 83.5514 86.2808 85.4728 86.2808 85.4728C86.2808 85.4728 86.4189 89.1396 85.7929 89.6464C85.1668 90.1533 85.0363 91.3643 85.0363 91.3643C85.0363 91.3643 83.8864 93.6653 83.9223 94.2124C83.9583 94.7596 82.3223 98.4645 82.3223 98.4645C82.3223 98.4645 83.1223 93.8604 78.4602 91.8711C78.4602 91.8711 78.4242 90.3081 78.7722 89.8797C79.1202 89.4513 79.6631 89.2562 79.3226 87.0909C78.9822 84.9256 79.2243 82.3383 79.2243 81.8187C79.2243 81.2992 80.2683 78.0586 80.2683 78.0586L83.9299 79.1169Z" fill="black"/>
<path id="Vector_101" d="M84.4973 75.7237L85.6434 76.1478C85.6434 76.1478 86.1673 78.4107 86.1673 79.6195C86.1673 80.8284 86.8974 80.9471 86.8974 80.9471C86.8974 80.9471 87.6974 82.0075 87.2756 82.7794C86.8539 83.5514 86.6855 85.4728 86.6855 85.4728C86.6855 85.4728 86.8236 89.1396 86.1976 89.6465C85.5715 90.1533 85.4316 91.3643 85.4316 91.3643C85.4316 91.3643 84.2835 93.6653 84.3195 94.2124C84.3554 94.7596 82.7175 98.4645 82.7175 98.4645C82.7175 98.4645 83.5194 93.8604 78.8554 91.8711C78.8554 91.8711 78.8214 90.3081 79.1694 89.8797C79.5174 89.4513 80.0602 89.2562 79.7197 87.0909C79.3793 84.9257 79.6214 82.3383 79.6214 81.8187C79.6214 81.2992 80.6654 78.0586 80.6654 78.0586L84.4973 75.7237Z" fill="white"/>
<path id="Vector_102" opacity="0.1" d="M59.1818 152.68C59.1818 152.68 61.0088 151.392 62.2079 152.327C63.407 153.263 59.1818 152.68 59.1818 152.68Z" fill="black"/>
<path id="Vector_103" opacity="0.1" d="M73.3781 148.699C73.3781 148.699 74.9951 148.466 76.3531 150.105C77.7111 151.744 73.3781 148.699 73.3781 148.699Z" fill="black"/>
<g id="Group" opacity="0.1">
<path id="Vector_104" d="M75.7441 46.137C75.5115 46.3618 75.2126 46.523 75.0575 46.822C74.9251 47.0786 74.9214 47.3946 74.8155 47.6703C74.7095 47.946 74.4012 48.1708 74.1875 47.9969C74.1384 46.0883 73.2986 44.2962 72.2678 42.7693C71.9796 42.3085 71.6293 41.9007 71.2295 41.5604C70.8247 41.2192 70.3209 41.0596 69.8167 41.113C69.2493 41.1999 68.7499 41.6325 68.1769 41.6856C67.4203 41.7577 66.7413 41.1702 65.9905 41.1405C65.6854 41.1439 65.3844 41.2204 65.1078 41.3649C64.8312 41.5094 64.5853 41.7185 64.3866 41.9782C63.9918 42.5004 63.6987 43.1094 63.5261 43.766C63.2289 44.7625 63.0669 45.8034 63.0457 46.8538C63.0343 47.4455 62.9852 48.1836 62.4972 48.4041C62.5086 48.5608 62.5086 48.7182 62.4972 48.8749C62.9889 48.6628 63.0381 47.9163 63.0495 47.3225C63.0705 46.2721 63.2325 45.2311 63.5299 44.2347C63.7025 43.5774 63.9956 42.9678 64.3904 42.4448C64.5895 42.1858 64.8355 41.9773 65.112 41.8332C65.3886 41.6891 65.6893 41.6128 65.9943 41.6092C66.7508 41.6389 67.4317 42.2242 68.1807 42.1543C68.7481 42.1012 69.2511 41.6665 69.8204 41.5816C70.3246 41.5283 70.8285 41.6879 71.2333 42.0291C71.6331 42.3693 71.9834 42.7771 72.2716 43.238C73.3024 44.7628 74.1421 46.5506 74.1913 48.4635C74.405 48.6395 74.7133 48.4105 74.8192 48.139C74.9251 47.8676 74.9289 47.5495 75.0613 47.2907C75.2164 46.9917 75.5152 46.8326 75.7479 46.6078C76.338 46.0374 76.4855 45.0767 76.4628 44.205C76.4628 44.1775 76.4628 44.1499 76.4628 44.1244C76.4269 44.8794 76.2472 45.6493 75.7441 46.137Z" fill="black"/>
<path id="Vector_105" d="M61.7823 45.9865C61.3473 45.4499 60.7534 45.0915 60.3543 44.5231C60.0183 44.02 59.8264 43.4143 59.8039 42.7862C59.7444 43.5711 59.9399 44.3537 60.3543 44.9897C60.7534 45.5602 61.3473 45.9186 61.7823 46.4551C62.1999 46.98 62.4507 47.6452 62.4953 48.3469C62.5243 47.9199 62.476 47.4907 62.3535 47.0851C62.231 46.6795 62.0367 46.3058 61.7823 45.9865Z" fill="black"/>
<path id="Vector_106" d="M76.8315 39.5839C76.72 40.1035 76.5214 40.5976 76.4306 41.1214C76.3768 41.4715 76.3572 41.827 76.372 42.1818C76.3783 41.9797 76.3979 41.7784 76.4306 41.5795C76.5214 41.0536 76.72 40.5616 76.8315 40.042C76.8966 39.7554 76.9177 39.4585 76.894 39.164C76.8822 39.3055 76.8614 39.4458 76.8315 39.5839Z" fill="black"/>
</g>
<path id="Vector_107" opacity="0.1" d="M25.1037 161.303C35.2819 161.303 43.5329 159.817 43.5329 157.984C43.5329 156.151 35.2819 154.665 25.1037 154.665C14.9256 154.665 6.67456 156.151 6.67456 157.984C6.67456 159.817 14.9256 161.303 25.1037 161.303Z" fill="#6C63FF"/>
<path id="Vector_108" d="M25.6976 94.4033H24.5117V124.342H25.6976V94.4033Z" fill="#535461"/>
<path id="Vector_109" d="M33.1494 124.251L33.0757 125.6L32.9698 127.508L32.9263 128.301L32.8222 130.21L32.7769 131.003L32.6709 132.912L31.4756 154.559C31.4237 155.49 31.0572 156.364 30.4507 157.003C29.8442 157.642 29.0434 157.998 28.2112 157.998H21.9962C21.1642 157.998 20.3636 157.642 19.7574 157.003C19.1513 156.364 18.7852 155.49 18.7337 154.559L17.544 132.897L17.4381 130.988L17.3946 130.195L17.2887 128.287L17.2452 127.493L17.1393 125.585L17.0636 124.236C17.0505 123.976 17.0848 123.716 17.1644 123.472C17.2441 123.228 17.3674 123.005 17.5268 122.816C17.6862 122.627 17.8783 122.477 18.0914 122.374C18.3044 122.271 18.534 122.219 18.7658 122.219H31.4775C31.7085 122.221 31.9367 122.277 32.1479 122.382C32.3591 122.487 32.5489 122.639 32.7056 122.829C32.8622 123.02 32.9825 123.244 33.0588 123.488C33.1351 123.733 33.166 123.992 33.1494 124.251Z" fill="#3F3D56"/>
<path id="Vector_110" d="M33.0757 125.6L32.9697 127.502H17.2376L17.1317 125.6H33.0757Z" fill="#9D9CB5"/>
<path id="Vector_111" d="M32.9262 128.295L32.8222 130.2H17.387L17.2811 128.295H32.9262Z" fill="#9D9CB5"/>
<path id="Vector_112" d="M32.7768 130.995L32.6728 132.897H17.5365L17.4305 130.995H32.7768Z" fill="#9D9CB5"/>
<path id="Vector_113" d="M15.3217 105.624C22.2269 111.227 25.1093 119.99 25.1093 119.99C25.1093 119.99 16.7875 119.67 9.88031 114.067C2.97316 108.464 0.0964355 99.7031 0.0964355 99.7031C0.0964355 99.7031 8.41452 100.021 15.3217 105.624Z" fill="#6C63FF"/>
<path id="Vector_114" d="M0.0908203 99.7031C0.0908203 99.7031 8.73043 105.079 11.5012 109.531C14.272 113.982 25.1094 119.99 25.1094 119.99" stroke="#535461" stroke-width="2" stroke-miterlimit="10"/>
<path id="Vector_115" d="M19.7795 94.3376C23.5376 97.3851 25.1093 102.155 25.1093 102.155C25.1093 102.155 20.5796 101.981 16.8196 98.9332C13.0596 95.8857 11.4917 91.114 11.4917 91.114C11.4917 91.114 16.0196 91.2879 19.7795 94.3376Z" fill="#6C63FF"/>
<path id="Vector_116" d="M11.4917 91.114C11.4917 91.114 16.1936 94.0406 17.7009 96.4626C19.2083 98.8845 25.1093 102.155 25.1093 102.155" stroke="#535461" stroke-width="2" stroke-miterlimit="10"/>
<path id="Vector_117" d="M30.5659 101.913C26.248 107.234 25.3345 114.188 25.3345 114.188C25.3345 114.188 31.4227 112.512 35.7368 107.189C40.0509 101.866 40.9682 94.9144 40.9682 94.9144C40.9682 94.9144 34.8838 96.5919 30.5659 101.913Z" fill="#6C63FF"/>
<path id="Vector_118" d="M40.972 94.9165C40.972 94.9165 35.3472 100.371 33.9173 104.129C32.4875 107.887 25.3345 114.188 25.3345 114.188" stroke="#535461" stroke-width="2" stroke-miterlimit="10"/>
<path id="Vector_119" d="M189.071 100.04C189.071 100.04 185.948 82.6204 187.144 80.453C187.144 80.453 187.187 78.4383 187.115 75.87C187.115 75.7725 187.115 75.6749 187.115 75.5752C187.326 75.7325 187.545 75.8741 187.772 75.9994C188.873 76.6338 190.137 76.8169 191.346 76.5169L190.401 75.3356C190.174 75.0535 189.937 74.7481 189.888 74.3749C189.839 74.0016 189.975 73.6687 190.092 73.3357C190.991 70.7908 191.038 67.5906 189.307 65.648C187.845 64.015 187.49 61.907 185.903 60.4161C184.744 59.3239 184.106 57.7227 183.505 56.1746C182.996 54.8661 182.484 53.547 182.192 52.16C181.965 51.0763 181.875 49.9544 181.562 48.8961C181.25 47.8379 180.666 46.8093 179.752 46.3364C179.427 46.1688 179.066 46.0734 178.769 45.8507C178.379 45.5559 178.145 45.0767 177.863 44.6568C176.431 42.536 171.637 43.7851 169.367 44.6461C168.75 44.863 168.179 45.2179 167.688 45.6896L167.708 45.6514C167.725 45.6196 167.746 45.5878 167.765 45.556C167.517 45.7812 167.302 46.0497 167.13 46.3512C166.799 46.9387 166.661 47.6237 166.385 48.2599C166.052 49.0128 164.2 51.1145 164.996 51.9606C165.052 52.0175 165.116 52.0633 165.185 52.0964C165.484 52.2359 165.813 52.2728 166.131 52.2024L166.097 52.2936C165.825 53.0402 165.686 53.8391 165.687 54.6455C165.687 58.1299 168.249 60.9548 171.414 60.9548C172.008 60.9554 172.6 60.8531 173.167 60.6515C173.18 60.7321 173.191 60.8127 173.205 60.8933C173.205 60.9251 173.214 60.9569 173.218 60.9887L173.118 61.1456C173.113 61.1359 173.107 61.1267 173.101 61.1181L170.131 65.771C169.677 66.1294 167.063 68.2502 166.916 69.8407C166.761 71.5819 166.606 73.6199 166.606 73.6199L166.585 74.0568C166.455 74.1784 166.303 74.2669 166.14 74.3164C165.977 74.3658 165.806 74.3749 165.639 74.3431C164.713 74.1734 164.713 78.1604 164.713 78.1604C164.713 78.1604 164.096 78.7967 163.672 78.2453C163.249 77.6939 162.129 79.5623 162.129 79.5623L155.112 79.9016L154.951 79.9122L154.573 78.5994C154.532 78.461 154.445 78.3461 154.329 78.2798C154.213 78.2135 154.079 78.2011 153.955 78.2453C153.925 78.2561 153.897 78.2696 153.87 78.2856L153.843 78.3025L153.794 78.3407L153.769 78.3662C153.756 78.38 153.743 78.3948 153.731 78.4107L153.709 78.4404L153.697 78.4531C153.654 78.5208 153.625 78.5991 153.613 78.6816C153.601 78.7641 153.607 78.8485 153.629 78.9282L153.955 80.0543C152.6 80.3597 151.216 81.2207 152.345 83.5917L146.622 82.4062L148.474 84.1495L158.032 86.3614C157.906 86.6159 157.989 86.9849 158.384 87.5045C160.086 89.7461 163.188 90.3548 164.436 90.5117C164.766 91.3386 165.178 92.1212 165.664 92.8446L165.556 95.0777C165.556 95.0777 162.396 112.099 161.817 112.962C162.109 112.591 162.376 112.196 162.617 111.781C161.7 115.278 160.417 120.064 160.081 120.781C159.54 121.926 159.039 126.56 159.655 126.857C159.844 126.948 160.385 126.904 161.157 126.838V127.222L161.123 141.768C161.123 141.768 161.278 150.69 160.852 151.541C160.427 152.391 160.313 154.175 160.313 154.175C160.313 154.175 158.611 157.693 157.263 159.108C157.253 159.119 157.243 159.128 157.232 159.137L157.191 158.806C157.191 158.806 155.57 161.101 151.984 160.972C151.984 160.972 149.826 162.545 153.026 162.63C156.226 162.715 160.313 162.503 160.313 162.503C160.313 162.503 163.167 157.625 165.558 158.261V161.958H166.29V158.202C166.629 157.951 166.92 157.626 167.144 157.246C167.368 156.866 167.521 156.438 167.593 155.99C167.656 155.528 167.61 155.055 167.46 154.619C167.31 154.183 167.061 153.798 166.738 153.502C166.593 153.355 166.477 153.176 166.396 152.976C166.316 152.776 166.273 152.56 166.271 152.34L166.245 152.366C166.245 152.291 166.228 152.215 166.22 152.137C166.01 150.228 165.747 146.29 166.676 143.376C167.949 139.38 168.334 133.815 167.408 130.503C167.109 129.444 166.863 128.367 166.672 127.277C166.649 127.139 166.628 127.008 166.61 126.885C167.243 126.981 167.87 127.123 168.488 127.309C170.634 127.973 175.331 128.096 179.34 128.06C179.35 128.183 179.361 128.312 179.374 128.441C179.446 129.341 179.595 130.23 179.821 131.097C180.324 132.793 180.554 140.273 180.554 140.273C180.554 140.273 181.203 146.423 180.849 148.926C180.66 150.317 180.471 151.715 180.363 153.119V153.146C180.363 153.146 179.3 156.539 178.523 158.382C178.504 158.429 178.483 158.476 178.464 158.52C178.257 158.541 178.053 158.592 177.857 158.671C177.857 158.671 176.815 161.004 175.777 161.389C174.739 161.775 175.083 163.046 177.434 162.579C179.785 162.113 183.335 161.731 183.335 161.731L183.488 159.351L184.21 158.338L184.021 160.711L184.791 160.541L184.689 157.655L185.871 155.996C185.871 155.996 187.299 154.571 185.177 151.768V151.829C185.154 151.789 185.133 151.746 185.109 151.706V151.693C184.757 151.083 184.477 149.944 184.99 147.923C185.916 144.271 186.455 140.956 186.455 140.956C186.455 140.956 188.524 132.076 186.037 127.875H186.147C185.892 127.284 185.712 126.656 185.612 126.009C185.599 125.933 185.588 125.854 185.578 125.774C187.418 125.655 189.224 125.282 190.698 124.476C190.692 124.467 189.805 103.395 189.071 100.04ZM165.707 85.3434V85.3859L165.329 85.4071L165.707 85.3434ZM164.41 85.5449C164.348 85.5604 164.29 85.5916 164.24 85.6361C164.077 85.8941 163.975 86.1939 163.943 86.5077L163.353 86.3593C163.353 86.3593 162.938 86.2596 162.343 86.1472L162.061 85.8291C162.836 85.757 163.642 85.6509 164.41 85.5449Z" fill="url(#paint1_linear_0_1)"/>
<path id="Vector_120" d="M183.934 157.685L183.709 160.69L184.464 160.52L184.35 157.26L183.934 157.685Z" fill="#1D2366"/>
<path id="Vector_121" d="M166.717 143.416C165.808 146.322 166.065 150.243 166.269 152.147C166.345 152.851 166.415 153.28 166.415 153.28C166.415 153.28 165.055 156.754 164.941 156.885C164.828 157.016 160.939 159.678 160.939 159.678L158.221 161.457C158.221 161.457 155.464 160.102 156.786 159.636C157.056 159.514 157.299 159.328 157.499 159.091C158.823 157.68 160.485 154.175 160.485 154.175C160.485 154.175 160.599 152.395 161.015 151.549C161.431 150.703 161.28 141.811 161.28 141.811L161.312 127.315V125.426L166.485 125.468C166.517 126.11 166.592 126.748 166.708 127.377C166.894 128.463 167.134 129.536 167.429 130.592C168.34 133.898 167.962 139.435 166.717 143.416Z" fill="#FFB0B1"/>
<path id="Vector_122" opacity="0.1" d="M166.415 153.28C166.415 153.28 165.055 156.754 164.941 156.885C164.828 157.017 160.939 159.678 160.939 159.678L158.221 161.457C158.221 161.457 155.464 160.102 156.786 159.636C157.056 159.514 157.299 159.328 157.499 159.091L157.616 160.017L158.522 159.975L166.277 152.151C166.345 152.851 166.415 153.28 166.415 153.28Z" fill="black"/>
<path id="Vector_123" d="M166.32 152.349L158.522 160.225L157.616 160.268L157.427 158.783C157.427 158.783 155.842 161.069 152.32 160.942C152.32 160.942 150.206 162.509 153.34 162.594C156.474 162.679 160.476 162.467 160.476 162.467C160.476 162.467 163.271 157.589 165.611 158.225V161.909H166.33V158.191C166.664 157.939 166.949 157.614 167.168 157.235C167.387 156.856 167.536 156.431 167.604 155.986C167.667 155.527 167.623 155.059 167.476 154.625C167.33 154.191 167.087 153.807 166.77 153.509C166.629 153.36 166.516 153.18 166.438 152.981C166.361 152.781 166.321 152.566 166.32 152.349Z" fill="#1D2366"/>
<path id="Vector_124" d="M184.653 147.946C184.15 149.961 184.424 151.095 184.768 151.704V151.717C185.21 152.468 185.517 153.309 185.672 154.192L185.703 154.383L182.154 160.183L180.229 161.031C180.229 161.031 177.133 159.846 177.698 159.506C177.84 159.424 178.062 158.982 178.315 158.374C179.071 156.539 180.116 153.155 180.116 153.155V153.127C180.225 151.729 180.399 150.336 180.592 148.949C180.938 146.453 180.303 140.326 180.303 140.326C180.303 140.326 180.076 132.876 179.584 131.181C179.362 130.32 179.214 129.436 179.143 128.543C179.041 127.483 179.019 126.609 179.019 126.609C179.019 126.609 181.057 123.428 184.795 126.864C185.094 127.138 185.357 127.457 185.576 127.814C188.157 131.932 186.079 141.005 186.079 141.005C186.079 141.005 185.559 144.305 184.653 147.946Z" fill="#FFB0B1"/>
<path id="Vector_125" opacity="0.1" d="M185.708 154.383L182.16 160.183L180.235 161.031C180.235 161.031 177.139 159.846 177.704 159.506C177.846 159.424 178.067 158.982 178.321 158.374C179.631 158.361 180.31 159.761 180.31 159.761L181.971 159.464C181.971 159.464 184.161 154.637 184.653 154.342C185.145 154.047 184.729 152.139 184.729 152.139V151.653C184.742 151.67 184.753 151.689 184.768 151.706V151.719C185.21 152.47 185.517 153.311 185.672 154.194L185.708 154.383Z" fill="black"/>
<path id="Vector_126" d="M180.424 159.886C180.424 159.886 179.478 157.939 177.666 158.658C177.666 158.658 176.647 160.991 175.627 161.368C174.608 161.746 174.948 163.018 177.252 162.554C179.556 162.089 183.028 161.706 183.028 161.706L183.18 159.332L185.521 155.988C185.521 155.988 186.917 154.569 184.84 151.776V152.262C184.84 152.262 185.256 154.17 184.764 154.465C184.273 154.76 182.09 159.589 182.09 159.589L180.424 159.886Z" fill="#1D2366"/>
<path id="Vector_127" opacity="0.1" d="M166.49 125.464C166.523 126.105 166.598 126.743 166.714 127.373C164.584 127.023 162.607 127.197 161.312 127.311V125.421L166.49 125.464Z" fill="black"/>
<path id="Vector_128" opacity="0.1" d="M185.786 128.342C185.786 128.342 182.76 128.507 179.151 128.541C179.049 127.481 179.026 126.607 179.026 126.607C179.026 126.607 181.065 123.426 184.802 126.861C185.101 127.135 185.364 127.455 185.583 127.812C185.642 127.992 185.71 128.169 185.786 128.342Z" fill="black"/>
<path id="Vector_129" d="M185.786 127.96C185.786 127.96 172.531 128.679 168.491 127.409C164.451 126.138 160.448 127.239 159.844 126.944C159.241 126.649 159.731 122.032 160.26 120.889C160.79 119.746 163.695 108.186 163.695 108.186L166.49 91.8435L169.435 90.9337L169.643 90.868L174.774 89.2817L178.534 88.1174C178.534 88.1174 186.011 120.847 185.37 123.26C185.137 124.185 185.099 125.157 185.26 126.1C185.358 126.744 185.535 127.37 185.786 127.96Z" fill="#1D2366"/>
<path id="Vector_130" d="M156.746 80.6672C156.746 80.6672 154.098 83.8483 156.103 85.6213C158.108 87.3942 159.426 85.7909 159.426 85.7909L156.746 80.6672Z" fill="#C7DAF5"/>
<path id="Vector_131" opacity="0.1" d="M156.746 80.6672C156.746 80.6672 154.098 83.8483 156.103 85.6213C158.108 87.3942 159.426 85.7909 159.426 85.7909L156.746 80.6672Z" fill="black"/>
<path id="Vector_132" d="M178.139 59.7523C178.139 59.7523 177.829 60.0831 177.362 60.5709C176.696 61.2686 175.711 62.2887 174.837 63.1434C173.626 64.3246 172.628 65.192 172.985 64.4519C173.343 63.7117 173.275 62.4223 173.097 61.2156C173.084 61.135 173.072 61.0544 173.059 60.9759C172.912 60.0897 172.717 59.2144 172.475 58.3547C172.475 58.3547 174.43 55.5214 175.512 54.4037C175.915 53.9796 176.197 53.8057 176.214 54.1005C176.233 54.497 176.497 55.3729 176.827 56.3018C176.836 56.3315 176.845 56.3591 176.857 56.3888C177.076 57.025 177.324 57.6782 177.542 58.2423C177.874 59.1076 178.139 59.7523 178.139 59.7523Z" fill="#FFB0B1"/>
<path id="Vector_133" opacity="0.1" d="M176.857 56.3888C176.673 57.4972 176.227 58.5299 175.566 59.3789C174.904 60.228 174.052 60.8624 173.097 61.2156C172.946 60.2475 172.739 59.2917 172.475 58.3547C172.475 58.3547 176.157 53.021 176.214 54.1005C176.227 54.5098 176.515 55.4175 176.857 56.3888Z" fill="black"/>
<path id="Vector_134" opacity="0.1" d="M172.73 62.6407L173.206 61.8879C173.206 61.8879 173.522 64.0468 174.684 63.0946C175.845 62.1424 175.902 70.2606 175.902 70.2606L174.655 91.1564L165.649 90.552L165.904 80.4551L166.923 75.3653L169.445 67.966L170.944 65.5207L172.73 62.6407Z" fill="black"/>
<path id="Vector_135" d="M175.902 70.39L174.767 89.2838L174.648 91.2858L169.626 90.9486L169.437 90.9359L165.654 90.6814L165.91 80.5823L166.929 75.4925L169.45 68.0932L170.95 65.648L172.736 62.7574L173.212 62.0067C173.212 62.0067 173.528 64.1656 174.689 63.2134L174.714 63.1943C175.849 62.3884 175.902 70.39 175.902 70.39Z" fill="#1D2366"/>
<path id="Vector_136" d="M167.056 73.7238C167.056 73.7238 166.604 74.7842 165.696 74.6124C164.788 74.4406 164.79 78.4298 164.79 78.4298C164.79 78.4298 164.187 79.066 163.771 78.5146C163.354 77.9632 162.258 79.8273 162.258 79.8273L155.384 80.1667C155.384 80.1667 158.443 81.7339 157.843 86.4759C157.843 86.4759 168.227 85.7549 168.567 84.6542C168.907 83.5535 167.056 73.7238 167.056 73.7238Z" fill="white"/>
<path id="Vector_137" opacity="0.03" d="M167.056 73.7238C167.056 73.7238 166.604 74.7842 165.696 74.6124C164.788 74.4406 164.79 78.4298 164.79 78.4298C164.79 78.4298 164.187 79.066 163.771 78.5146C163.354 77.9632 162.258 79.8273 162.258 79.8273L155.384 80.1667C155.384 80.1667 158.443 81.7339 157.843 86.4759C157.843 86.4759 168.227 85.7549 168.567 84.6542C168.907 83.5535 167.056 73.7238 167.056 73.7238Z" fill="black"/>
<path id="Vector_138" d="M147.082 82.6586L148.893 84.3933L163.809 87.9074L161.959 85.7909L147.082 82.6586Z" fill="white"/>
<path id="Vector_139" d="M172.758 63.3088C172.511 63.7329 171.801 65.9046 171.209 67.8005C170.716 69.3805 170.303 70.7696 170.303 70.7696C170.303 70.7696 169.341 77.7978 168.849 79.0681C168.357 80.3385 168.624 85.2925 168.624 85.2925L166.791 97.5272C166.791 97.5272 165.961 103.836 164.679 107.605C163.413 111.314 162.004 113.053 161.961 113.108C162.528 112.247 165.62 95.294 165.62 95.294L166.642 73.9126C166.642 73.9126 166.791 71.8809 166.942 70.144C167.094 68.4071 170.158 66.0361 170.158 66.0361L173.112 61.3259C173.409 61.7712 173.21 62.5474 172.758 63.3088Z" fill="white"/>
<path id="Vector_140" d="M165.055 90.7874C165.055 90.7874 160.705 90.5753 158.598 87.7378C156.491 84.9002 163.468 86.6053 163.468 86.6053L165.282 87.0718L165.055 90.7874Z" fill="#FFB0B1"/>
<path id="Vector_141" opacity="0.1" d="M185.37 123.263C185.137 124.187 185.099 125.159 185.26 126.102C180.515 126.48 175.438 125.042 175.438 125.042C174.493 126.017 172.002 127.455 172.002 127.455L170.644 108.581C169.776 106.036 169.435 92.7025 169.435 92.7025C169.435 92.7025 169.513 92.0047 169.624 90.9592C169.624 90.9337 169.624 90.9062 169.634 90.8807C169.972 87.9604 170.644 82.4783 170.973 81.7381C171.427 80.7202 169.577 78.012 169.577 78.012L170.419 69.9637L170.521 68.9924C172.295 68.1038 173.655 65.2662 173.655 65.2662L174.699 63.2155C175.834 62.399 175.892 70.4006 175.892 70.4006L174.757 89.2944L178.517 88.1301C178.517 88.1301 186.011 120.849 185.37 123.263Z" fill="black"/>
<path id="Vector_142" d="M190.24 124.567C185.067 127.447 175.665 124.779 175.665 124.779C174.72 125.754 172.229 127.192 172.229 127.192L170.869 108.318C170.003 105.773 169.662 92.4395 169.662 92.4395C169.662 92.4395 170.755 82.491 171.209 81.4752C171.342 81.1783 171.277 80.7372 171.12 80.2621C170.349 78.001 170.065 75.5673 170.292 73.1597L170.655 69.7008L170.755 68.7316C172.531 67.8408 173.891 65.0033 173.891 65.0033L174.837 63.1455L176.577 59.7226L177.401 58.1023L177.541 58.2444L178.61 59.3303C178.61 59.3303 179.064 59.7544 179.745 60.3906C181.226 61.7903 183.785 64.2547 185.105 65.7625C186.266 67.0901 186.633 72.2541 186.739 76.1415C186.809 78.7012 186.767 80.7075 186.767 80.7075C185.597 82.8685 188.659 100.218 188.659 100.218C189.372 103.571 190.24 124.567 190.24 124.567Z" fill="white"/>
<path id="Vector_143" opacity="0.03" d="M180.31 64.9609C180.31 64.9609 176.76 72.5383 177.173 75.4183C177.585 78.2983 178.758 81.5579 178.192 82.3192C177.998 82.6077 177.747 82.8418 177.458 83.0033C177.17 83.1648 176.852 83.2493 176.53 83.2502C175.962 83.2927 174.449 84.4782 174.449 84.6054C174.449 84.7327 173.051 84.7327 171.801 85.3265C170.551 85.9203 168.705 86.2575 168.705 86.2575C168.705 86.2575 165.112 86.1302 164.777 86.512C164.442 86.8937 164.098 89.1778 164.815 90.9995C165.531 92.8212 166.328 94.1806 166.929 94.4288C167.531 94.6769 171.347 93.2432 174.443 92.9039C177.54 92.5646 180.9 89.814 180.9 89.814C180.9 89.814 184.602 88.3295 185.251 85.8333C185.899 83.3372 184.458 69.618 184.458 69.618C184.458 69.618 183.369 63.224 180.31 64.9609Z" fill="black"/>
<path id="Vector_144" opacity="0.03" d="M179.856 64.3246C179.856 64.3246 176.306 71.9042 176.722 74.7821C177.139 77.6599 178.307 80.9217 177.74 81.6851C177.546 81.9739 177.296 82.2083 177.007 82.3699C176.719 82.5314 176.402 82.6157 176.079 82.6161C175.512 82.6586 173.999 83.8441 173.999 83.9713C173.999 84.0986 172.601 84.0986 171.351 84.6902C170.101 85.2819 168.255 85.6213 168.255 85.6213C168.255 85.6213 164.661 85.494 164.329 85.8757C163.996 86.2575 163.648 88.5437 164.366 90.3633C165.085 92.1829 165.879 93.5444 166.481 93.7925C167.082 94.0407 170.899 92.607 173.995 92.2698C177.091 91.9326 180.452 89.1778 180.452 89.1778C180.452 89.1778 184.152 87.6932 184.793 85.1992C185.434 82.7052 184 68.9818 184 68.9818C184 68.9818 182.915 62.5899 179.856 64.3246Z" fill="black"/>
<path id="Vector_145" d="M180.199 64.5791C180.199 64.5791 176.649 72.1587 177.065 75.0366C177.481 77.9144 178.65 81.1761 178.084 81.9375C177.891 82.2269 177.64 82.4619 177.351 82.6239C177.063 82.7858 176.744 82.8703 176.422 82.8706C175.854 82.913 174.341 84.0985 174.341 84.2237C174.341 84.3488 172.946 84.3509 171.693 84.9447C170.441 85.5385 168.597 85.8757 168.597 85.8757C168.597 85.8757 165.004 85.7485 164.669 86.1302C164.334 86.512 163.99 88.7981 164.707 90.6177C165.424 92.4374 166.22 93.7989 166.821 94.047C167.423 94.2951 171.24 92.8615 174.336 92.5222C177.432 92.1829 180.793 89.4322 180.793 89.4322C180.793 89.4322 184.494 87.9477 185.143 85.4516C185.791 82.9555 184.36 69.2363 184.36 69.2363C184.36 69.2363 183.255 62.8528 180.199 64.5791Z" fill="white"/>
<path id="Vector_146" opacity="0.1" d="M180.121 84.9087C180.121 84.9087 177.284 84.2725 178.272 85.3328C179.259 86.3932 179.253 87.3221 180.462 87.2797C181.67 87.2373 180.121 84.9087 180.121 84.9087Z" fill="black"/>
<path id="Vector_147" opacity="0.1" d="M184.916 107.724C184.916 107.724 183.633 108.697 186.087 110.941C188.54 113.185 184.916 107.724 184.916 107.724Z" fill="black"/>
<path id="Vector_148" opacity="0.1" d="M182.468 115.725C182.468 115.853 182.014 120.391 183.713 121.526C185.411 122.66 182.468 115.725 182.468 115.725Z" fill="black"/>
<path id="Vector_149" d="M155.502 80.1561C154.132 80.2091 151.174 80.6778 152.708 83.8865C154.064 86.7262 156.343 84.8281 157.626 83.3881C157.313 82.0455 156.553 80.8887 155.502 80.1561Z" fill="#FFB0B1"/>
<path id="Vector_150" opacity="0.1" d="M179.745 60.52C178.292 61.6334 177.074 62.5729 176.836 62.768C176.185 63.3088 174.945 66.4836 174.145 68.1038C173.507 69.4081 171.436 69.7432 170.655 69.8259L170.755 68.8567C172.531 67.966 173.891 65.1284 173.891 65.1284L177.401 58.2275L178.61 59.4596C178.61 59.4596 179.064 59.8838 179.745 60.52Z" fill="black"/>
<path id="Vector_151" d="M179.745 60.3928C178.292 61.5062 177.074 62.4457 176.836 62.6429C176.185 63.1816 174.945 66.3563 174.145 67.9766C173.507 69.2808 171.436 69.6159 170.655 69.6986L170.755 68.7294C172.531 67.8387 173.891 65.0012 173.891 65.0012L177.401 58.1002L178.61 59.3281C178.61 59.3281 179.064 59.748 179.745 60.3928Z" fill="#DCE7FF"/>
<path id="Vector_152" d="M176.95 54.9891C176.95 56.2621 176.606 57.5054 175.962 58.5541C175.202 59.7939 174.07 60.6871 172.773 61.0715C171.476 61.456 170.098 61.3062 168.891 60.6494C167.684 59.9926 166.726 58.8722 166.193 57.4917C165.659 56.1111 165.585 54.5617 165.982 53.1247C166.38 51.6878 167.225 50.4583 168.362 49.6595C169.499 48.8607 170.854 48.5455 172.181 48.7711C173.507 48.9966 174.718 49.7479 175.593 50.8888C176.468 52.0296 176.949 53.4844 176.95 54.9891Z" fill="#FFB0B1"/>
<path id="Vector_153" opacity="0.1" d="M186.739 76.1436C185.971 75.6138 185.345 74.8604 184.929 73.9635C184.613 73.2636 184.403 72.4556 183.864 71.9594C183.378 71.514 182.729 71.4058 182.124 71.2065C180.134 70.5469 178.466 68.511 178.404 66.1867C178.374 65.0923 178.678 64.0002 178.54 62.9164C178.462 62.3031 178.244 61.7226 177.908 61.2305C177.742 60.9951 177.559 60.7745 177.362 60.5709C177.097 60.291 176.819 60.0195 176.577 59.7226C176.424 59.5388 176.291 59.336 176.18 59.1182C176.09 58.94 176.017 58.7516 175.962 58.5562C175.584 57.2583 175.928 55.7186 175.512 54.4059L175.489 54.3338C175.332 53.8672 175.013 53.4006 174.568 53.3646C174.124 53.3285 173.744 53.7421 173.32 53.9266C172.433 54.3125 171.476 53.6551 170.736 52.985C169.997 52.3148 169.163 51.5492 168.223 51.6977C167.601 51.7973 167.109 52.2724 166.536 52.5184C166.406 52.5746 166.273 52.6178 166.137 52.6478C166.622 51.2916 167.513 50.1671 168.657 49.4675C169.801 48.7679 171.126 48.537 172.406 48.8142C173.685 49.0915 174.839 49.8598 175.668 50.987C176.497 52.1142 176.95 53.53 176.949 54.9912C176.95 55.4324 176.909 55.8725 176.827 56.3039C176.836 56.3336 176.845 56.3612 176.857 56.3909C177.076 57.0271 177.324 57.6803 177.541 58.2444L178.61 59.3303C178.61 59.3303 179.064 59.7544 179.745 60.3906C181.226 61.7903 183.785 64.2546 185.105 65.7625C186.266 67.0943 186.629 72.2563 186.739 76.1436Z" fill="black"/>
<path id="Vector_154" d="M166.47 48.6438C166.74 48.0266 166.874 47.3353 167.198 46.7499C167.672 45.9016 168.501 45.3587 169.352 45.03C171.574 44.1711 176.271 42.9241 177.674 45.03C177.95 45.4541 178.179 45.925 178.561 46.2176C178.852 46.4403 179.204 46.5357 179.524 46.7033C180.418 47.1741 180.989 48.2005 181.294 49.2482C181.598 50.2958 181.689 51.4198 181.912 52.4993C182.198 53.8842 182.699 55.1969 183.198 56.5012C183.787 58.0408 184.411 59.6378 185.546 60.7257C187.095 62.2102 187.437 64.3119 188.874 65.9406C190.577 67.8748 190.522 71.0665 189.644 73.6008C189.529 73.9338 189.398 74.2816 189.444 74.6357C189.489 74.9899 189.724 75.3123 189.945 75.5943L190.875 76.7713C188.674 77.3673 186.183 76.0779 185.158 73.815C184.842 73.1152 184.632 72.3093 184.091 71.8109C183.607 71.3655 182.956 71.2595 182.353 71.0602C180.363 70.3985 178.695 68.3604 178.633 66.0361C178.603 64.9439 178.907 63.8517 178.769 62.7701C178.692 62.1527 178.474 61.5681 178.135 61.0735C177.615 60.3122 176.83 59.8011 176.407 58.9528C175.69 57.534 176.235 55.691 175.718 54.1683C175.559 53.7018 175.242 53.2352 174.797 53.1992C174.353 53.1631 173.973 53.5766 173.547 53.7612C172.662 54.1471 171.705 53.4918 170.965 52.8195C170.226 52.1473 169.392 51.3838 168.45 51.5344C167.828 51.6319 167.338 52.107 166.765 52.3551C166.341 52.5375 165.482 52.7008 165.112 52.2999C164.329 51.4919 166.142 49.3988 166.47 48.6438Z" fill="#591D4B"/>
<path id="Vector_155" opacity="0.1" d="M185.684 73.1152C185.366 72.4153 185.158 71.6094 184.617 71.1132C184.133 70.6678 183.482 70.5596 182.877 70.3603C180.889 69.7007 179.221 67.6627 179.157 65.3384C179.126 64.2462 179.431 63.1519 179.295 62.0703C179.216 61.4568 178.997 60.8763 178.661 60.3843C178.139 59.6229 177.354 59.1118 176.932 58.2635C176.216 56.8468 176.76 55.0039 176.242 53.4791C176.085 53.0146 175.766 52.5481 175.323 52.5099C174.88 52.4717 174.496 52.8895 174.073 53.074C173.188 53.46 172.229 52.8026 171.491 52.1324C170.753 51.4623 169.916 50.6967 168.976 50.8451C168.353 50.9448 167.862 51.4198 167.29 51.6658C166.867 51.8482 166.006 52.0136 165.636 51.6128C164.856 50.7645 166.67 48.6756 166.995 47.9248C167.266 47.3056 167.4 46.6163 167.725 46.031C167.742 45.9992 167.761 45.9674 167.78 45.9356C167.537 46.1616 167.327 46.4293 167.158 46.7287C166.835 47.3141 166.7 48.0012 166.43 48.6226C166.103 49.3733 164.289 51.4686 165.07 52.3106C165.448 52.7135 166.299 52.5481 166.723 52.3657C167.29 52.1176 167.786 51.6425 168.408 51.545C169.354 51.3944 170.186 52.16 170.924 52.8301C171.661 53.5003 172.626 54.1577 173.507 53.7717C173.931 53.5872 174.302 53.1716 174.756 53.2098C175.209 53.2479 175.512 53.7124 175.677 54.1789C176.193 55.7016 175.648 57.5446 176.365 58.9634C176.789 59.7968 177.574 60.3185 178.094 61.0841C178.432 61.5787 178.651 62.1633 178.727 62.7807C178.865 63.8623 178.561 64.9545 178.591 66.0467C178.654 68.3795 180.322 70.4091 182.311 71.0708C182.911 71.2701 183.565 71.3761 184.05 71.8215C184.592 72.3199 184.806 73.1258 185.116 73.8256C186.141 76.0885 188.632 77.3779 190.834 76.7819L190.395 76.2263C188.487 76.2581 186.556 75.0408 185.684 73.1152Z" fill="black"/>
<path id="Vector_156" opacity="0.1" d="M172.645 63.436C172.397 63.8602 171.688 66.0318 171.096 67.9278C170.542 67.686 170.039 66.1442 170.039 66.1442L172.993 61.4319C173.295 61.8985 173.097 62.6726 172.645 63.436Z" fill="black"/>
<path id="Vector_157" d="M172.758 63.3088C172.51 63.7329 171.801 65.9046 171.209 67.8005C170.655 67.5609 170.152 66.017 170.152 66.017L173.106 61.3068C173.409 61.7712 173.21 62.5474 172.758 63.3088Z" fill="#DCE7FF"/>
<path id="Vector_158" d="M155.581 84.9744L153.943 79.1826C153.924 79.1148 153.917 79.0434 153.922 78.9724C153.927 78.9015 153.945 78.8324 153.974 78.7691C154.003 78.7059 154.043 78.6497 154.092 78.6038C154.14 78.558 154.197 78.5233 154.257 78.5019C154.379 78.4592 154.511 78.4723 154.624 78.5382C154.738 78.6041 154.823 78.7176 154.862 78.8539L156.5 84.6393L156.338 85.8503L155.581 84.9744Z" fill="#BE8B87"/>
<path id="Vector_159" opacity="0.1" d="M154.098 78.6737C154.22 78.6304 154.353 78.6431 154.467 78.7091C154.581 78.775 154.666 78.8889 154.705 79.0257L156.343 84.8111L156.22 85.7188L156.34 85.8588L156.502 84.6478L154.855 78.8624C154.816 78.7261 154.73 78.6126 154.617 78.5467C154.503 78.4808 154.371 78.4677 154.25 78.5104C154.147 78.5477 154.058 78.6223 153.998 78.7224C154.03 78.7031 154.064 78.6868 154.098 78.6737Z" fill="white"/>
<path id="Vector_160" d="M155.581 84.9744L156.5 84.6478L156.366 85.6403L156.338 85.8588L156.069 85.5449L155.581 84.9744Z" fill="#EFC8C4"/>
<path id="Vector_161" d="M156.069 85.5449C156.085 85.5222 156.105 85.5035 156.128 85.4898C156.141 85.4803 156.156 85.4753 156.172 85.4753C156.188 85.4753 156.203 85.4803 156.217 85.4898C156.229 85.5072 156.24 85.5265 156.249 85.547C156.261 85.5704 156.278 85.5904 156.299 85.6054C156.319 85.6205 156.342 85.6302 156.366 85.634L156.338 85.8461L156.069 85.5449Z" fill="#727A9C"/>
<path id="Vector_162" d="M153.934 81.2398C153.934 81.2398 157.219 81.2186 156.446 82.7858C155.672 84.353 154.463 84.5418 154.463 84.5418L153.934 81.2398Z" fill="#FFB0B1"/>
<path id="Vector_163" d="M133.502 10.9049H133.36C127.716 10.9049 122.725 14.2536 119.854 19.195C116.983 14.2536 111.992 10.9049 106.348 10.9049H106.206C101.971 10.9502 97.9221 12.8679 94.9405 16.2413C91.9589 19.6147 90.2851 24.1713 90.2828 28.9207C90.2828 34.8186 92.5865 43.1871 97.0784 50.0732C105.637 63.1943 119.854 74.6739 119.854 74.6739C119.854 74.6739 134.071 63.1964 142.627 50.0732C147.121 43.1871 149.423 34.8186 149.423 28.9207C149.421 24.1716 147.747 19.6154 144.766 16.2421C141.785 12.8687 137.737 10.9507 133.502 10.9049ZM131.472 51.0826C130.83 51.0799 130.203 50.8593 129.674 50.4498C129.145 50.0402 128.739 49.461 128.509 48.788H125.134C124.912 48.7864 124.696 48.7071 124.516 48.5611C124.336 48.4151 124.201 48.2097 124.13 47.9736L123.094 44.4722L119.814 57.3219C119.75 57.5693 119.617 57.7867 119.433 57.9416C119.25 58.0965 119.026 58.1804 118.797 58.1808H118.73C118.491 58.1678 118.262 58.063 118.083 57.8839C117.904 57.7048 117.786 57.4622 117.747 57.1968L114.367 34.4029L111.897 47.8909C111.84 48.1471 111.709 48.3747 111.523 48.5373C111.338 48.6999 111.109 48.7881 110.874 48.788H106.121C105.978 48.7947 105.836 48.7691 105.703 48.7126C105.569 48.6562 105.447 48.57 105.345 48.4593C105.242 48.3487 105.16 48.2158 105.104 48.0688C105.048 47.9217 105.019 47.7634 105.019 47.6035C105.019 47.4436 105.048 47.2854 105.104 47.1383C105.16 46.9912 105.242 46.8584 105.345 46.7477C105.447 46.6371 105.569 46.5509 105.703 46.4944C105.836 46.438 105.978 46.4123 106.121 46.4191H110.042L113.541 28.2845C113.598 28.0164 113.737 27.779 113.933 27.6128C114.129 27.4467 114.371 27.3622 114.617 27.3737C114.862 27.3852 115.097 27.4921 115.28 27.676C115.463 27.8599 115.584 28.1095 115.621 28.3821L119.073 51.634L122.012 40.1374C122.073 39.8953 122.202 39.6818 122.381 39.529C122.559 39.3761 122.777 39.2919 123.001 39.2891H123.022C123.244 39.2892 123.461 39.368 123.641 39.5142C123.821 39.6604 123.955 39.8667 124.024 40.1035L125.899 46.4255H128.467C128.65 45.8034 128.982 45.2499 129.427 44.8263C129.873 44.4026 130.414 44.1251 130.991 44.0245C131.568 43.9239 132.159 44.0041 132.698 44.2562C133.237 44.5082 133.704 44.9224 134.046 45.453C134.388 45.9836 134.593 46.6099 134.638 47.2629C134.683 47.9159 134.567 48.5701 134.301 49.1534C134.035 49.7366 133.631 50.2263 133.133 50.5682C132.635 50.9101 132.062 51.0911 131.478 51.0911L131.472 51.0826Z" fill="#6C63FF"/>
</g>
</g>
<defs>
<filter id="filter0_i_0_1" x="-554" y="-259" width="1334" height="1024" filterUnits="userSpaceOnUse" color-interpolation-filters="sRGB">
<feFlood flood-opacity="0" result="BackgroundImageFix"/>
<feBlend mode="normal" in="SourceGraphic" in2="BackgroundImageFix" result="shape"/>
<feColorMatrix in="SourceAlpha" type="matrix" values="0 0 0 0 0 0 0 0 0 0 0 0 0 0 0 0 0 0 127 0" result="hardAlpha"/>
<feOffset dx="4"/>
<feGaussianBlur stdDeviation="1"/>
<feComposite in2="hardAlpha" operator="arithmetic" k2="-1" k3="1"/>
<feColorMatrix type="matrix" values="0 0 0 0 0 0 0 0 0 0 0 0 0 0 0 0 0 0 0.25 0"/>
<feBlend mode="normal" in2="shape" result="effect1_innerShadow_0_1"/>
</filter>
<filter id="filter1_d_0_1" x="-536" y="-22" width="810" height="208" filterUnits="userSpaceOnUse" color-interpolation-filters="sRGB">
<feFlood flood-opacity="0" result="BackgroundImageFix"/>
<feColorMatrix in="SourceAlpha" type="matrix" values="0 0 0 0 0 0 0 0 0 0 0 0 0 0 0 0 0 0 127 0" result="hardAlpha"/>
<feOffset dx="4" dy="-4"/>
<feGaussianBlur stdDeviation="5"/>
<feComposite in2="hardAlpha" operator="out"/>
<feColorMatrix type="matrix" values="0 0 0 0 0.396078 0 0 0 0 0.152941 0 0 0 0 0.745098 0 0 0 0.41 0"/>
<feBlend mode="normal" in2="BackgroundImageFix" result="effect1_dropShadow_0_1"/>
<feBlend mode="normal" in="SourceGraphic" in2="effect1_dropShadow_0_1" result="shape"/>
</filter>
<linearGradient id="paint0_linear_0_1" x1="67.3939" y1="164.331" x2="67.3939" y2="33.8324" gradientUnits="userSpaceOnUse">
<stop stop-color="#808080" stop-opacity="0.25"/>
<stop offset="0.54" stop-color="#808080" stop-opacity="0.12"/>
<stop offset="1" stop-color="#808080" stop-opacity="0.1"/>
</linearGradient>
<linearGradient id="paint1_linear_0_1" x1="168.978" y1="162.681" x2="168.978" y2="43.4946" gradientUnits="userSpaceOnUse">
<stop stop-color="#808080" stop-opacity="0.25"/>
<stop offset="0.54" stop-color="#808080" stop-opacity="0.12"/>
<stop offset="1" stop-color="#808080" stop-opacity="0.1"/>
</linearGradient>
<clipPath id="clip0_0_1">
<rect width="1440" height="1024" fill="white" transform="translate(-640 -259)"/>
</clipPath>
<clipPath id="clip1_0_1">
<rect width="209" height="166" fill="white"/>
</clipPath>
</defs>
</svg>
