<svg width="55" height="55" viewBox="0 0 55 55" fill="none" xmlns="http://www.w3.org/2000/svg">
<g id="octicon:sign-out-16">
<path id="Vector" d="M6.875 9.45312C6.875 6.1325 9.57 3.4375 12.8906 3.4375H21.4844C22.1681 3.4375 22.8239 3.70912 23.3074 4.19262C23.7909 4.67611 24.0625 5.33186 24.0625 6.01562C24.0625 6.69939 23.7909 7.35514 23.3074 7.83863C22.8239 8.32213 22.1681 8.59375 21.4844 8.59375H12.8906C12.6627 8.59375 12.4441 8.68429 12.283 8.84546C12.1218 9.00662 12.0313 9.2252 12.0313 9.45312V45.5469C12.0313 46.0213 12.4163 46.4062 12.8906 46.4062H21.4844C22.1681 46.4062 22.8239 46.6779 23.3074 47.1614C23.7909 47.6449 24.0625 48.3006 24.0625 48.9844C24.0625 49.6681 23.7909 50.3239 23.3074 50.8074C22.8239 51.2909 22.1681 51.5625 21.4844 51.5625H12.8906C11.2952 51.5625 9.76508 50.9287 8.63694 49.8006C7.50879 48.6724 6.875 47.1423 6.875 45.5469V9.45312ZM42.7625 24.9219L35.9906 18.15C35.6513 17.8349 35.4032 17.4341 35.2725 16.9898C35.1418 16.5455 35.1334 16.0742 35.2481 15.6255C35.3628 15.1768 35.5965 14.7674 35.9244 14.4403C36.2522 14.1133 36.6623 13.8807 37.1112 13.7672C37.5594 13.6523 38.0303 13.6603 38.4743 13.7904C38.9183 13.9204 39.319 14.1677 39.6344 14.5062L50.8063 25.6781C51.2891 26.1615 51.5602 26.8168 51.5602 27.5C51.5602 28.1832 51.2891 28.8385 50.8063 29.3219L39.6344 40.4937C39.3193 40.8331 38.9184 41.0812 38.4741 41.2119C38.0298 41.3426 37.5585 41.351 37.1099 41.2363C36.6612 41.1215 36.2518 40.8879 35.9247 40.56C35.5977 40.2321 35.3651 39.8221 35.2516 39.3731C35.1367 38.925 35.1447 38.4541 35.2748 38.0101C35.4048 37.5661 35.6521 37.1654 35.9906 36.85L42.7625 30.0781H23.2031C22.5194 30.0781 21.8636 29.8065 21.3801 29.323C20.8966 28.8395 20.625 28.1838 20.625 27.5C20.625 26.8162 20.8966 26.1605 21.3801 25.677C21.8636 25.1935 22.5194 24.9219 23.2031 24.9219H42.7625Z" fill="#F8F8F8"/>
</g>
</svg>
