<svg width="98" height="96" viewBox="0 0 98 96" fill="none" xmlns="http://www.w3.org/2000/svg">
<g id="User 02a">
<g clip-path="url(#clip0_15_561)">
<rect width="98" height="96" rx="48" fill="url(#paint0_linear_15_561)"/>
<g id="User 02a_2">
<path id="Mask" d="M59.4534 56.32V63.52C59.4534 64.9066 38.5467 64.4403 38.5467 62.441C38.5467 60.5594 38.5859 52.0326 38.5467 43.2602C33.8649 37.3155 33.8649 33.6 37.5667 29.76C41.2685 25.92 67.6201 24 67.6201 24C67.6201 24 69.597 42.6272 69.9067 47.68C70.0312 49.712 71.3767 56.32 66.1501 56.32H59.4534Z" fill="url(#paint1_linear_15_561)"/>
<g id="Path 48" style="mix-blend-mode:multiply">
<path d="M59.4455 55.705C55.1894 55.2501 51.0762 53.9339 47.3667 51.84C47.3667 51.84 49.98 57.92 59.4455 59.5699V55.705Z" fill="#FFD7B8"/>
</g>
<path id="Combined Shape" d="M83.3 77.8582C85.3733 81.9877 87.0066 88.8144 88.2 98.3382H9.80005C10.9939 88.8133 12.6272 81.9867 14.7 77.8582C16.7659 73.743 35.9334 65.8234 35.9334 65.8234C35.9334 65.8234 36.3149 62.2032 37.24 61.6842C38.1652 61.1651 59.6582 61.1654 60.76 61.6842C61.8619 62.2029 62.0667 65.8214 62.0667 65.8214C62.0667 65.8214 81.2381 73.7517 83.3 77.8582Z" fill="url(#paint2_linear_15_561)"/>
<path id="Combined Shape_2" d="M42.7999 33.6659C41.7611 32.792 40.4989 32.2035 38.7146 33.1117C34.4846 35.263 37.292 43.5632 42.0257 43.4013C43.659 43.3456 42.9103 46.5341 38.5467 48.64C38.5467 45.28 33.32 36.96 32.8627 29.385C27.6034 27.4666 28.9101 19.7907 32.5207 19.7907C31.9445 12.7536 43.4467 9.11904 47.9005 13.1571C52.43 7.83904 63.8634 10.559 64.5536 15.1728C72.4155 11.0618 77.5834 22.879 70.2219 27.4666C67.1928 29.3546 60.1067 30.073 49.8778 30.073C44.9693 30.073 47.792 41.3274 49.3267 44.96C51.2867 49.6 62.23 50.24 65.66 49.76C68.3387 49.3853 69.7434 48.32 69.9067 47.68C72.3567 54.08 69.2534 57.92 64.3534 57.92C56.0234 57.92 47.6934 55.52 46.3867 49.6C45.3466 44.8886 45.4038 37.2851 42.7999 33.6659Z" fill="url(#paint3_linear_15_561)"/>
</g>
</g>
</g>
<defs>
<linearGradient id="paint0_linear_15_561" x1="49" y1="0" x2="49" y2="96" gradientUnits="userSpaceOnUse">
<stop stop-color="#100014"/>
<stop offset="1" stop-color="#853644"/>
</linearGradient>
<linearGradient id="paint1_linear_15_561" x1="52.5272" y1="24" x2="52.5272" y2="64.3158" gradientUnits="userSpaceOnUse">
<stop stop-color="#FFD4B3"/>
<stop offset="1" stop-color="#FFDCC2"/>
</linearGradient>
<linearGradient id="paint2_linear_15_561" x1="49" y1="61.295" x2="49" y2="98.3382" gradientUnits="userSpaceOnUse">
<stop stop-color="#546CEB"/>
<stop offset="1" stop-color="#556BE5"/>
</linearGradient>
<linearGradient id="paint3_linear_15_561" x1="51.5639" y1="57.92" x2="51.5639" y2="10.2382" gradientUnits="userSpaceOnUse">
<stop stop-color="#E67240"/>
<stop offset="0.656777" stop-color="#914EE6"/>
</linearGradient>
<clipPath id="clip0_15_561">
<rect width="98" height="96" rx="48" fill="white"/>
</clipPath>
</defs>
</svg>
