<svg width="39" height="27" viewBox="0 0 39 27" fill="none" xmlns="http://www.w3.org/2000/svg">
<path id="Vector" d="M39 14.064C39 14.5115 38.7875 14.9406 38.4092 15.2571C38.0309 15.5735 37.5178 15.7513 36.9828 15.7513H32.8508L26.6831 26.0678C26.5155 26.3479 26.258 26.5834 25.9394 26.7481C25.6209 26.9127 25.2538 27 24.8793 27H24.7784C24.3873 26.9834 24.0103 26.872 23.6936 26.6792C23.3769 26.4865 23.1341 26.2207 22.9949 25.9145L13.9526 6.07033L9.23224 14.767C9.07117 15.0609 8.81253 15.31 8.48709 15.4845C8.16164 15.659 7.78312 15.7516 7.39655 15.7513H2.01724C1.48224 15.7513 0.969142 15.5735 0.590836 15.2571C0.21253 14.9406 0 14.5115 0 14.064C0 13.6165 0.21253 13.1873 0.590836 12.8708C0.969142 12.5544 1.48224 12.3766 2.01724 12.3766H6.09711L12.285 0.987305C12.45 0.684569 12.7184 0.429399 13.0563 0.253879C13.3942 0.0783594 13.7866 -0.00967534 14.1842 0.000843753C14.5818 0.0113628 14.9668 0.119966 15.2908 0.312999C15.6148 0.506032 15.8633 0.774877 16.0051 1.08573L25.1298 21.1169L29.7997 13.3047C29.968 13.0253 30.2258 12.7906 30.5443 12.6268C30.8628 12.4629 31.2295 12.3763 31.6034 12.3766H36.9828C37.5178 12.3766 38.0309 12.5544 38.4092 12.8708C38.7875 13.1873 39 13.6165 39 14.064Z" fill="#F24E1E"/>
</svg>
